<svg width="15" height="15" viewBox="0 0 15 15" fill="none" xmlns="http://www.w3.org/2000/svg">
<path d="M1.2177 12.4784C0.827174 12.869 0.827174 13.5021 1.2177 13.8927C1.60822 14.2832 2.24139 14.2832 2.63191 13.8927L1.9248 13.1855L1.2177 12.4784ZM14.4434 1.66699C14.4434 1.11471 13.9956 0.666992 13.4434 0.666992L4.44336 0.666993C3.89107 0.666993 3.44336 1.11471 3.44336 1.66699C3.44336 2.21928 3.89107 2.66699 4.44336 2.66699L12.4434 2.66699L12.4434 10.667C12.4434 11.2193 12.8911 11.667 13.4434 11.667C13.9956 11.667 14.4434 11.2193 14.4434 10.667L14.4434 1.66699ZM1.9248 13.1855L2.63191 13.8927L14.1505 2.3741L13.4434 1.66699L12.7363 0.959886L1.2177 12.4784L1.9248 13.1855Z" fill="black"/>
</svg>
