<svg width="21" height="22" viewBox="0 0 21 22" fill="none" xmlns="http://www.w3.org/2000/svg">
<g clip-path="url(#clip0_127_6716)">
<path d="M16.0781 0.630371H4.92188C2.2036 0.630371 0 2.83397 0 5.55225V16.7085C0 19.4268 2.2036 21.6304 4.92188 21.6304H16.0781C18.7964 21.6304 21 19.4268 21 16.7085V5.55225C21 2.83397 18.7964 0.630371 16.0781 0.630371Z" fill="url(#paint0_radial_127_6716)"/>
<path d="M16.0781 0.630371H4.92188C2.2036 0.630371 0 2.83397 0 5.55225V16.7085C0 19.4268 2.2036 21.6304 4.92188 21.6304H16.0781C18.7964 21.6304 21 19.4268 21 16.7085V5.55225C21 2.83397 18.7964 0.630371 16.0781 0.630371Z" fill="url(#paint1_radial_127_6716)"/>
<path d="M10.5007 2.92725C8.27293 2.92725 7.99329 2.93701 7.11834 2.97679C6.24504 3.01682 5.64892 3.15505 5.12736 3.35791C4.58776 3.56742 4.13011 3.84772 3.67418 4.30381C3.21784 4.75982 2.93754 5.21748 2.72738 5.75683C2.52394 6.27855 2.38555 6.87492 2.34626 7.74781C2.30713 8.62284 2.29688 8.90257 2.29688 11.1305C2.29688 13.3583 2.30672 13.6371 2.34642 14.512C2.38662 15.3853 2.52484 15.9815 2.72754 16.503C2.93721 17.0426 3.21751 17.5003 3.67361 17.9562C4.12945 18.4125 4.58711 18.6935 5.1263 18.903C5.64826 19.1059 6.24446 19.2441 7.11761 19.2841C7.99263 19.3239 8.27203 19.3337 10.4998 19.3337C12.7278 19.3337 13.0065 19.3239 13.8815 19.2841C14.7548 19.2441 15.3516 19.1059 15.8735 18.903C16.4129 18.6935 16.8699 18.4125 17.3257 17.9562C17.782 17.5003 18.0622 17.0426 18.2725 16.5033C18.4741 15.9815 18.6126 15.3852 18.6536 14.5122C18.6929 13.6372 18.7031 13.3583 18.7031 11.1305C18.7031 8.90257 18.6929 8.623 18.6536 7.74798C18.6126 6.87467 18.4741 6.27863 18.2725 5.75708C18.0622 5.21748 17.782 4.75982 17.3257 4.30381C16.8694 3.84755 16.4131 3.56725 15.873 3.35799C15.3501 3.15505 14.7536 3.01674 13.8803 2.97679C13.0053 2.93701 12.7267 2.92725 10.4982 2.92725H10.5007ZM9.76484 4.40553C9.98329 4.4052 10.227 4.40553 10.5007 4.40553C12.6911 4.40553 12.9506 4.41341 13.8155 4.4527C14.6153 4.48929 15.0495 4.62291 15.3386 4.73521C15.7215 4.88386 15.9944 5.06162 16.2813 5.34881C16.5684 5.63592 16.7461 5.90933 16.8952 6.29217C17.0075 6.58092 17.1413 7.01503 17.1777 7.81483C17.217 8.67961 17.2255 8.93932 17.2255 11.1286C17.2255 13.3178 17.217 13.5776 17.1777 14.4423C17.1411 15.2421 17.0075 15.6762 16.8952 15.965C16.7465 16.3479 16.5684 16.6205 16.2813 16.9074C15.9942 17.1945 15.7216 17.3722 15.3386 17.5209C15.0498 17.6337 14.6153 17.767 13.8155 17.8036C12.9508 17.8429 12.6911 17.8514 10.5007 17.8514C8.31034 17.8514 8.05071 17.8429 7.18602 17.8036C6.38621 17.7667 5.95211 17.6331 5.6627 17.5208C5.27994 17.372 5.00645 17.1944 4.71934 16.9073C4.43223 16.6201 4.25455 16.3474 4.1055 15.9644C3.9932 15.6756 3.85941 15.2414 3.82298 14.4416C3.78369 13.5769 3.77582 13.3172 3.77582 11.1265C3.77582 8.93587 3.78369 8.67755 3.82298 7.81278C3.85957 7.01298 3.9932 6.57887 4.1055 6.28971C4.25422 5.90687 4.43223 5.63346 4.71942 5.34635C5.00661 5.05924 5.27994 4.88148 5.66278 4.73251C5.95194 4.61971 6.38621 4.48641 7.18602 4.44966C7.94276 4.41546 8.23602 4.4052 9.76484 4.40348V4.40553ZM14.8796 5.76758C14.3361 5.76758 13.8952 6.20809 13.8952 6.75163C13.8952 7.29508 14.3361 7.736 14.8796 7.736C15.423 7.736 15.8639 7.29508 15.8639 6.75163C15.8639 6.20817 15.423 5.76725 14.8796 5.76725V5.76758ZM10.5007 6.91774C8.17433 6.91774 6.28811 8.80397 6.28811 11.1305C6.28811 13.4569 8.17433 15.3423 10.5007 15.3423C12.8272 15.3423 14.7128 13.4569 14.7128 11.1305C14.7128 8.80405 12.8271 6.91774 10.5006 6.91774H10.5007ZM10.5007 8.39602C12.0109 8.39602 13.2352 9.62018 13.2352 11.1305C13.2352 12.6406 12.0109 13.8649 10.5007 13.8649C8.99063 13.8649 7.76639 12.6406 7.76639 11.1305C7.76639 9.62018 8.99054 8.39602 10.5007 8.39602Z" fill="white"/>
</g>
<defs>
<radialGradient id="paint0_radial_127_6716" cx="0" cy="0" r="1" gradientUnits="userSpaceOnUse" gradientTransform="translate(5.57812 23.2478) rotate(-90) scale(20.8126 19.3573)">
<stop stop-color="#FFDD55"/>
<stop offset="0.1" stop-color="#FFDD55"/>
<stop offset="0.5" stop-color="#FF543E"/>
<stop offset="1" stop-color="#C837AB"/>
</radialGradient>
<radialGradient id="paint1_radial_127_6716" cx="0" cy="0" r="1" gradientUnits="userSpaceOnUse" gradientTransform="translate(-3.51758 2.14311) rotate(78.681) scale(9.30333 38.3486)">
<stop stop-color="#3771C8"/>
<stop offset="0.128" stop-color="#3771C8"/>
<stop offset="1" stop-color="#6600FF" stop-opacity="0"/>
</radialGradient>
<clipPath id="clip0_127_6716">
<rect width="21" height="21" fill="white" transform="translate(0 0.630371)"/>
</clipPath>
</defs>
</svg>
