<svg width="18" height="17" viewBox="0 0 18 17" fill="none" xmlns="http://www.w3.org/2000/svg">
<path d="M12.0586 2.32642H5.68359C4.69764 2.32741 3.75238 2.69648 3.05521 3.35264C2.35803 4.0088 1.9659 4.89846 1.96484 5.82642V11.8264C1.9659 12.7544 2.35803 13.644 3.05521 14.3002C3.75238 14.9564 4.69764 15.3254 5.68359 15.3264H12.0586C13.0445 15.3254 13.9898 14.9564 14.687 14.3002C15.3842 13.644 15.7763 12.7544 15.7773 11.8264V5.82642C15.7763 4.89846 15.3842 4.0088 14.687 3.35264C13.9898 2.69648 13.0445 2.32741 12.0586 2.32642ZM8.87109 11.8264C8.24067 11.8264 7.6244 11.6505 7.10021 11.3208C6.57603 10.9912 6.16748 10.5226 5.92623 9.97447C5.68497 9.42629 5.62185 8.82309 5.74484 8.24115C5.86783 7.6592 6.17141 7.12465 6.61719 6.7051C7.06297 6.28554 7.63093 5.99982 8.24924 5.88406C8.86756 5.7683 9.50846 5.82771 10.0909 6.05478C10.6733 6.28184 11.1712 6.66636 11.5214 7.15971C11.8716 7.65305 12.0586 8.23307 12.0586 8.82642C12.0577 9.62181 11.7216 10.3844 11.124 10.9468C10.5264 11.5093 9.7162 11.8256 8.87109 11.8264ZM12.8555 5.82642C12.6979 5.82642 12.5438 5.78243 12.4127 5.70002C12.2817 5.61761 12.1796 5.50047 12.1193 5.36343C12.0589 5.22638 12.0432 5.07558 12.0739 4.9301C12.1047 4.78461 12.1805 4.65098 12.292 4.54609C12.4034 4.4412 12.5454 4.36977 12.7 4.34083C12.8546 4.31189 13.0148 4.32674 13.1604 4.38351C13.306 4.44027 13.4305 4.5364 13.518 4.65974C13.6056 4.78308 13.6523 4.92808 13.6523 5.07642C13.6523 5.27533 13.5684 5.46609 13.4189 5.60675C13.2695 5.7474 13.0668 5.82642 12.8555 5.82642ZM10.9961 8.82642C10.9961 9.22198 10.8715 9.60866 10.638 9.93756C10.4045 10.2665 10.0726 10.5228 9.6843 10.6742C9.296 10.8256 8.86874 10.8652 8.45653 10.788C8.04432 10.7108 7.66568 10.5203 7.36849 10.2406C7.07131 9.96092 6.86892 9.60456 6.78692 9.2166C6.70493 8.82863 6.74701 8.4265 6.90785 8.06105C7.06869 7.6956 7.34105 7.38324 7.69051 7.16348C8.03996 6.94371 8.45081 6.82642 8.87109 6.82642C9.43468 6.82642 9.97518 7.03713 10.3737 7.4122C10.7722 7.78728 10.9961 8.29598 10.9961 8.82642Z" fill="white"/>
</svg>
