<svg width="19" height="22" viewBox="0 0 19 22" fill="none" xmlns="http://www.w3.org/2000/svg">
<g clip-path="url(#clip0_127_6721)">
<path d="M14.0811 8.19188C15.4674 9.15824 17.1657 9.72684 18.9998 9.72684V6.28501C18.6527 6.28514 18.3065 6.2498 17.9669 6.17958V8.88879C16.1328 8.88879 14.4348 8.32027 13.0482 7.35398V14.3778C13.0482 17.8916 10.1273 20.7397 6.5244 20.7397C5.18007 20.7397 3.93053 20.3434 2.89258 19.6637C4.07726 20.845 5.72937 21.5777 7.55708 21.5777C11.1602 21.5777 14.0813 18.7295 14.0813 15.2157V8.19188H14.0811ZM15.3555 4.7195C14.647 3.96473 14.1818 2.98931 14.0811 1.91093V1.46826H13.1023C13.3487 2.83884 14.1892 4.00977 15.3555 4.7195ZM5.17139 16.9674C4.77553 16.4614 4.56157 15.8422 4.56257 15.2056C4.56257 13.5986 5.89859 12.2956 7.54691 12.2956C7.85404 12.2954 8.15937 12.3414 8.45216 12.4319V8.91312C8.11001 8.86743 7.76474 8.84795 7.41962 8.85512V11.594C7.12669 11.5034 6.82121 11.4574 6.51393 11.4577C4.86568 11.4577 3.52975 12.7605 3.52975 14.3678C3.52975 15.5042 4.19749 16.4881 5.17139 16.9674Z" fill="#FF004F"/>
<path d="M13.0482 7.35391C14.4348 8.3202 16.1327 8.88872 17.9668 8.88872V6.1795C16.943 5.96682 16.0367 5.44516 15.3553 4.7195C14.189 4.0097 13.3486 2.83877 13.1022 1.46826H10.5311V15.2155C10.5252 16.8182 9.19148 18.1158 7.54671 18.1158C6.57757 18.1158 5.71648 17.6653 5.1712 16.9673C4.19745 16.4881 3.52963 15.5042 3.52963 14.3678C3.52963 12.7608 4.86556 11.4577 6.51381 11.4577C6.82961 11.4577 7.13398 11.5057 7.4195 11.594V8.85519C3.87986 8.92652 1.0332 11.7469 1.0332 15.2156C1.0332 16.9471 1.74207 18.5169 2.89261 19.6638C3.93055 20.3434 5.18003 20.7399 6.52443 20.7399C10.1274 20.7399 13.0483 17.8915 13.0483 14.3778L13.0482 7.35391Z" fill="black"/>
<path d="M17.9665 6.17944V5.44705C17.0433 5.44835 16.1383 5.19624 15.355 4.71951C16.0484 5.45973 16.9614 5.97019 17.9665 6.17959M13.1018 1.4682C13.0784 1.33724 13.0603 1.20541 13.0478 1.07304V0.630371H9.49763V14.3778C9.49198 15.9803 8.15827 17.2779 6.51344 17.2779C6.04714 17.2786 5.58722 17.1723 5.17082 16.9675C5.71611 17.6654 6.57719 18.1158 7.54634 18.1158C9.19103 18.1158 10.5249 16.8183 10.5307 15.2156V1.46827L13.1018 1.4682ZM7.41935 8.85513V8.07531C7.12269 8.03579 6.82361 8.016 6.5242 8.01607C2.92088 8.01607 0 10.8644 0 14.3778C0 16.5805 1.14794 18.5218 2.89238 19.6637C1.74184 18.5168 1.03298 16.947 1.03298 15.2155C1.03298 11.7469 3.87956 8.92646 7.41935 8.85513Z" fill="#00F2EA"/>
</g>
<defs>
<clipPath id="clip0_127_6721">
<rect width="19" height="21" fill="white" transform="translate(0 0.630371)"/>
</clipPath>
</defs>
</svg>
