<svg width="17" height="12" viewBox="0 0 17 12" fill="none" xmlns="http://www.w3.org/2000/svg">
<g clip-path="url(#clip0_130_6728)">
<path d="M16.2834 2.37268C16.1916 2.04106 16.0126 1.73874 15.7641 1.49581C15.5157 1.25288 15.2065 1.07783 14.8674 0.988082C13.6257 0.656982 8.62861 0.656982 8.62861 0.656982C8.62861 0.656982 3.63123 0.667005 2.38961 0.998105C2.05045 1.08786 1.74126 1.26292 1.49282 1.50586C1.24438 1.7488 1.06537 2.05113 0.973606 2.38276C0.598043 4.53986 0.452356 7.82678 0.983918 9.89759C1.07569 10.2292 1.25471 10.5315 1.50315 10.7745C1.75158 11.0174 2.06077 11.1924 2.39992 11.2822C3.64154 11.6133 8.63879 11.6133 8.63879 11.6133C8.63879 11.6133 13.636 11.6133 14.8775 11.2822C15.2167 11.1924 15.5259 11.0174 15.7744 10.7745C16.0228 10.5315 16.2018 10.2292 16.2936 9.89759C16.6897 7.73744 16.8118 4.45253 16.2834 2.37268Z" fill="#FF0000"/>
<path d="M7.03711 8.48289L11.1826 6.13512L7.03711 3.78735V8.48289Z" fill="white"/>
</g>
<defs>
<clipPath id="clip0_130_6728">
<rect width="16" height="11" fill="white" transform="translate(0.636719 0.656982)"/>
</clipPath>
</defs>
</svg>
