<svg width="52" height="37" viewBox="0 0 52 37" fill="none" xmlns="http://www.w3.org/2000/svg">
<g clip-path="url(#clip0_190_243)">
<path d="M50.153 6.08961C49.8604 5.00432 49.2898 4.0149 48.4979 3.21987C47.706 2.42483 46.7205 1.85193 45.6395 1.55821C41.6818 0.474609 25.7534 0.474609 25.7534 0.474609C25.7534 0.474609 9.8243 0.507409 5.86662 1.59101C4.78556 1.88475 3.80002 2.45768 3.00812 3.25275C2.21623 4.04782 1.64562 5.03728 1.35312 6.12261C0.156019 13.1822 -0.30836 23.9394 1.386 30.7166C1.67852 31.8019 2.24914 32.7913 3.04103 33.5864C3.83293 34.3814 4.81846 34.9543 5.8995 35.248C9.85718 36.3316 25.7859 36.3316 25.7859 36.3316C25.7859 36.3316 41.7144 36.3316 45.6719 35.248C46.753 34.9543 47.7386 34.3814 48.5305 33.5864C49.3224 32.7914 49.8931 31.8019 50.1856 30.7166C51.4483 23.647 51.8373 12.8964 50.153 6.08961Z" fill="#FF0000"/>
<path d="M20.6836 26.0864L33.8974 18.4028L20.6836 10.7192V26.0864Z" fill="white"/>
</g>
<defs>
<clipPath id="clip0_190_243">
<rect width="51" height="36" fill="white" transform="translate(0.279297 0.474609)"/>
</clipPath>
</defs>
</svg>
