<svg width="16" height="17" viewBox="0 0 16 17" fill="none" xmlns="http://www.w3.org/2000/svg">
<g clip-path="url(#clip0_92_2702)">
<path d="M8.00124 13.3736C10.4597 13.3736 12.4526 11.3806 12.4526 8.92214C12.4526 6.4637 10.4597 4.4707 8.00124 4.4707C5.54281 4.4707 3.5498 6.4637 3.5498 8.92214C3.5498 11.3806 5.54274 13.3736 8.00118 13.3736" fill="white"/>
<path d="M2.244 6.73489C1.91192 6.15968 1.52159 5.55599 1.073 4.92383C0.370734 6.13992 0.00100042 7.51946 0.000976564 8.92376C0.00095271 10.3281 0.370639 11.7076 1.07287 12.9237C1.77509 14.1398 2.78511 15.1496 4.00137 15.8516C5.21763 16.5536 6.59727 16.923 8.00157 16.9226C8.73786 15.8899 9.23777 15.1453 9.50132 14.6889C10.0075 13.8121 10.6621 12.5569 11.4653 10.9232V10.9223C11.1144 11.5306 10.6095 12.0358 10.0015 12.3871C9.39339 12.7384 8.70354 12.9234 8.00128 12.9235C7.29902 12.9237 6.60911 12.7389 6.00093 12.3877C5.39275 12.0366 4.88774 11.5315 4.53669 10.9233C3.44594 8.88908 2.68171 7.49289 2.244 6.73489Z" fill="#229342"/>
<path d="M8.00144 16.923C9.05203 16.9232 10.0924 16.7164 11.063 16.3144C12.0337 15.9125 12.9156 15.3232 13.6585 14.5803C14.4014 13.8374 14.9906 12.9554 15.3925 11.9847C15.7944 11.014 16.0012 9.97369 16.0009 8.92309C16.0006 7.51878 15.6307 6.13929 14.9283 4.92328C13.4128 4.77391 12.2943 4.69922 11.5729 4.69922C10.7549 4.69922 9.56421 4.77391 8.00087 4.92328L8 4.92391C8.70227 4.92356 9.39226 5.10814 10.0006 5.45908C10.6089 5.81002 11.114 6.31496 11.4653 6.92309C11.8165 7.53123 12.0014 8.22113 12.0014 8.92341C12.0014 9.6257 11.8164 10.3156 11.4652 10.9237L8.00144 16.923Z" fill="#FBC116"/>
<path d="M8.00086 12.0906C9.74986 12.0906 11.1677 10.6728 11.1677 8.92371C11.1677 7.17465 9.74986 5.75684 8.0008 5.75684C6.25186 5.75684 4.83398 7.17471 4.83398 8.92371C4.83398 10.6727 6.25186 12.0906 8.00086 12.0906Z" fill="#1A73E8"/>
<path d="M8.00124 4.92312H14.9286C14.2266 3.70684 13.2168 2.69682 12.0006 1.99461C10.7845 1.2924 9.40493 0.922757 8.00063 0.922852C6.59632 0.922947 5.21679 1.29278 4.00075 1.99515C2.78471 2.69753 1.77504 3.70769 1.07324 4.92406L4.53693 10.9234L4.53787 10.9239C4.18646 10.3159 4.00135 9.62607 4.00114 8.9238C4.00094 8.22153 4.18564 7.53158 4.53669 6.92335C4.88774 6.31511 5.39275 5.81003 6.00093 5.4589C6.60912 5.10776 7.29903 4.92296 8.0013 4.92306L8.00124 4.92312Z" fill="#E33B2E"/>
</g>
<defs>
<clipPath id="clip0_92_2702">
<rect width="16" height="16" fill="white" transform="translate(0.000976562 0.922852)"/>
</clipPath>
</defs>
</svg>
