<svg width="41" height="40" viewBox="0 0 41 40" fill="none" xmlns="http://www.w3.org/2000/svg">
<g clip-path="url(#clip0_190_246)">
<path d="M30.8252 0H9.5752C4.39753 0 0.200195 4.19733 0.200195 9.375V30.625C0.200195 35.8027 4.39753 40 9.5752 40H30.8252C36.0029 40 40.2002 35.8027 40.2002 30.625V9.375C40.2002 4.19733 36.0029 0 30.8252 0Z" fill="url(#paint0_radial_190_246)"/>
<path d="M30.8252 0H9.5752C4.39753 0 0.200195 4.19733 0.200195 9.375V30.625C0.200195 35.8027 4.39753 40 9.5752 40H30.8252C36.0029 40 40.2002 35.8027 40.2002 30.625V9.375C40.2002 4.19733 36.0029 0 30.8252 0Z" fill="url(#paint1_radial_190_246)"/>
<path d="M20.2016 4.375C15.9582 4.375 15.4255 4.39359 13.7589 4.46938C12.0955 4.54563 10.96 4.80891 9.9666 5.19531C8.93879 5.59438 8.06707 6.12828 7.19863 6.99703C6.32941 7.86562 5.79551 8.73734 5.3952 9.76469C5.0077 10.7584 4.7441 11.8944 4.66926 13.557C4.59473 15.2238 4.5752 15.7566 4.5752 20.0002C4.5752 24.2438 4.59395 24.7747 4.66957 26.4412C4.74613 28.1047 5.00941 29.2402 5.39551 30.2336C5.79488 31.2614 6.32879 32.1331 7.19754 33.0016C8.06582 33.8708 8.93754 34.4059 9.96457 34.805C10.9588 35.1914 12.0944 35.4547 13.7575 35.5309C15.4243 35.6067 15.9564 35.6253 20.1997 35.6253C24.4436 35.6253 24.9746 35.6067 26.6411 35.5309C28.3046 35.4547 29.4413 35.1914 30.4355 34.805C31.4629 34.4059 32.3333 33.8708 33.2014 33.0016C34.0707 32.1331 34.6044 31.2614 35.0049 30.2341C35.3889 29.2402 35.6527 28.1044 35.7308 26.4416C35.8057 24.775 35.8252 24.2438 35.8252 20.0002C35.8252 15.7566 35.8057 15.2241 35.7308 13.5573C35.6527 11.8939 35.3889 10.7586 35.0049 9.76516C34.6044 8.73734 34.0707 7.86562 33.2014 6.99703C32.3324 6.12797 31.4632 5.59406 30.4346 5.19547C29.4385 4.80891 28.3024 4.54547 26.6389 4.46938C24.9722 4.39359 24.4416 4.375 20.1968 4.375H20.2016ZM18.7999 7.19078C19.216 7.19016 19.6802 7.19078 20.2016 7.19078C24.3736 7.19078 24.868 7.20578 26.5155 7.28063C28.0389 7.35031 28.8658 7.60484 29.4166 7.81875C30.1458 8.10188 30.6657 8.44047 31.2122 8.9875C31.7591 9.53438 32.0975 10.0552 32.3814 10.7844C32.5954 11.3344 32.8502 12.1613 32.9196 13.6847C32.9944 15.3319 33.0107 15.8266 33.0107 19.9966C33.0107 24.1666 32.9944 24.6614 32.9196 26.3084C32.8499 27.8319 32.5954 28.6587 32.3814 29.2089C32.0983 29.9381 31.7591 30.4573 31.2122 31.0039C30.6654 31.5508 30.1461 31.8892 29.4166 32.1725C28.8664 32.3873 28.0389 32.6413 26.5155 32.7109C24.8683 32.7858 24.3736 32.802 20.2016 32.802C16.0294 32.802 15.5349 32.7858 13.8879 32.7109C12.3644 32.6406 11.5375 32.3861 10.9863 32.1722C10.2572 31.8889 9.73629 31.5505 9.18941 31.0036C8.64254 30.4567 8.3041 29.9372 8.0202 29.2077C7.80629 28.6575 7.55145 27.8306 7.48207 26.3072C7.40723 24.66 7.39223 24.1653 7.39223 19.9927C7.39223 15.82 7.40723 15.328 7.48207 13.6808C7.55176 12.1573 7.80629 11.3305 8.0202 10.7797C8.30348 10.0505 8.64254 9.52969 9.18957 8.98281C9.7366 8.43594 10.2572 8.09734 10.9864 7.81359C11.5372 7.59875 12.3644 7.34484 13.8879 7.27484C15.3293 7.20969 15.8879 7.19016 18.7999 7.18687V7.19078ZM28.5422 9.78516C27.5071 9.78516 26.6672 10.6242 26.6672 11.6595C26.6672 12.6947 27.5071 13.5345 28.5422 13.5345C29.5774 13.5345 30.4172 12.6947 30.4172 11.6595C30.4172 10.6244 29.5774 9.78453 28.5422 9.78453V9.78516ZM20.2016 11.9759C15.7704 11.9759 12.1775 15.5688 12.1775 20.0002C12.1775 24.4316 15.7704 28.0227 20.2016 28.0227C24.633 28.0227 28.2246 24.4316 28.2246 20.0002C28.2246 15.5689 24.6327 11.9759 20.2013 11.9759H20.2016ZM20.2016 14.7917C23.078 14.7917 25.41 17.1234 25.41 20.0002C25.41 22.8766 23.078 25.2086 20.2016 25.2086C17.3252 25.2086 14.9933 22.8766 14.9933 20.0002C14.9933 17.1234 17.325 14.7917 20.2016 14.7917Z" fill="white"/>
</g>
<defs>
<radialGradient id="paint0_radial_190_246" cx="0" cy="0" r="1" gradientUnits="userSpaceOnUse" gradientTransform="translate(10.8252 43.0808) rotate(-90) scale(39.643 36.8711)">
<stop stop-color="#FFDD55"/>
<stop offset="0.1" stop-color="#FFDD55"/>
<stop offset="0.5" stop-color="#FF543E"/>
<stop offset="1" stop-color="#C837AB"/>
</radialGradient>
<radialGradient id="paint1_radial_190_246" cx="0" cy="0" r="1" gradientUnits="userSpaceOnUse" gradientTransform="translate(-6.49996 2.88141) rotate(78.681) scale(17.7206 73.045)">
<stop stop-color="#3771C8"/>
<stop offset="0.128" stop-color="#3771C8"/>
<stop offset="1" stop-color="#6600FF" stop-opacity="0"/>
</radialGradient>
<clipPath id="clip0_190_246">
<rect width="40" height="40" fill="white" transform="translate(0.200195)"/>
</clipPath>
</defs>
</svg>
