<svg width="39" height="43" viewBox="0 0 39 43" fill="none" xmlns="http://www.w3.org/2000/svg">
<g clip-path="url(#clip0_190_252)">
<path d="M28.5773 15.4832C31.3498 17.462 34.7464 18.6262 38.4147 18.6262V11.5787C37.7204 11.579 37.028 11.5066 36.3487 11.3628V16.9102C32.6807 16.9102 29.2846 15.7461 26.5115 13.7675V28.1497C26.5115 35.3445 20.6696 41.1765 13.4638 41.1765C10.7752 41.1765 8.27609 40.365 6.2002 38.9731C8.56955 41.3919 11.8738 42.8923 15.5292 42.8923C22.7355 42.8923 28.5776 37.0603 28.5776 29.8653V15.4832H28.5773ZM31.126 8.37311C29.709 6.82763 28.7786 4.83035 28.5773 2.62223V1.71582H26.6196C27.1124 4.52224 28.7934 6.91986 31.126 8.37311ZM10.7578 33.4522C9.96611 32.416 9.53818 31.1481 9.54019 29.8446C9.54019 26.5541 12.2122 23.886 15.5089 23.886C16.1231 23.8857 16.7338 23.9799 17.3194 24.1652V16.9601C16.6351 16.8665 15.9445 16.8266 15.2543 16.8413V22.4494C14.6684 22.264 14.0575 22.1699 13.4429 22.1703C10.1464 22.1703 7.47453 24.8381 7.47453 28.1291C7.47453 30.4561 8.81002 32.4708 10.7578 33.4522Z" fill="#FF004F"/>
<path d="M26.5114 13.7674C29.2847 15.746 32.6805 16.9101 36.3486 16.9101V11.3626C34.3011 10.9272 32.4885 9.85898 31.1257 8.37311C28.793 6.91971 27.1123 4.52209 26.6195 1.71582H21.4771V29.865C21.4654 33.1466 18.798 35.8037 15.5085 35.8037C13.5702 35.8037 11.848 34.8813 10.7574 33.452C8.80993 32.4708 7.47429 30.456 7.47429 28.1292C7.47429 24.8385 10.1462 22.1705 13.4427 22.1705C14.0743 22.1705 14.683 22.2686 15.254 22.4495V16.8414C8.17477 16.9875 2.48145 22.7625 2.48145 29.8651C2.48145 33.4107 3.89917 36.6248 6.20025 38.9734C8.27615 40.365 10.7751 41.1768 13.4639 41.1768C20.6698 41.1768 26.5115 35.3443 26.5115 28.1497L26.5114 13.7674Z" fill="black"/>
<path d="M36.349 11.3624V9.86272C34.5026 9.86539 32.6927 9.34915 31.1261 8.37299C32.5128 9.88868 34.3388 10.9339 36.349 11.3627M26.6197 1.71555C26.5727 1.44741 26.5367 1.17747 26.5116 0.90641V0H19.4113V28.1494C19.4 31.4308 16.7326 34.0879 13.4429 34.0879C12.5103 34.0893 11.5904 33.8715 10.7577 33.4522C11.8482 34.8812 13.5704 35.8034 15.5087 35.8034C18.7981 35.8034 21.4658 33.1466 21.4774 29.865V1.7157L26.6197 1.71555ZM15.2547 16.8412V15.2444C14.6614 15.1635 14.0632 15.123 13.4644 15.1231C6.25777 15.1231 0.416016 20.9554 0.416016 28.1494C0.416016 32.6598 2.7119 36.6348 6.20077 38.973C3.8997 36.6246 2.48197 33.4103 2.48197 29.8648C2.48197 22.7624 8.17514 16.9872 15.2547 16.8412Z" fill="#00F2EA"/>
</g>
<defs>
<clipPath id="clip0_190_252">
<rect width="38" height="43" fill="white" transform="translate(0.416016)"/>
</clipPath>
</defs>
</svg>
