<svg width="25" height="25" viewBox="0 0 25 25" fill="none" xmlns="http://www.w3.org/2000/svg">
<path d="M20.4992 17.1614C20.4232 17.2882 20.323 17.3988 20.2043 17.4869C20.0855 17.5749 19.9506 17.6387 19.8072 17.6745C19.6638 17.7104 19.5147 17.7177 19.3685 17.6959C19.2223 17.6741 19.0819 17.6238 18.9551 17.5477L13.1595 14.0696V20.333C13.1595 20.6314 13.041 20.9175 12.83 21.1285C12.619 21.3395 12.3329 21.458 12.0345 21.458C11.7361 21.458 11.45 21.3395 11.239 21.1285C11.028 20.9175 10.9095 20.6314 10.9095 20.333V14.0696L5.11388 17.5477C4.98719 17.6237 4.84678 17.674 4.70064 17.6958C4.55451 17.7176 4.40552 17.7103 4.26218 17.6745C4.11885 17.6387 3.98397 17.575 3.86526 17.487C3.74654 17.3991 3.64631 17.2886 3.57029 17.1619C3.41675 16.9061 3.37114 16.5997 3.44349 16.3102C3.51584 16.0207 3.70022 15.7719 3.95607 15.6183L9.84825 12.083L3.95607 8.5477C3.70022 8.39416 3.51584 8.14528 3.44349 7.8558C3.37114 7.56632 3.41675 7.25995 3.57029 7.0041C3.72382 6.74825 3.9727 6.56387 4.26218 6.49152C4.55166 6.41917 4.85803 6.46478 5.11388 6.61832L10.9095 10.0964V3.83301C10.9095 3.53464 11.028 3.24849 11.239 3.03751C11.45 2.82653 11.7361 2.70801 12.0345 2.70801C12.3329 2.70801 12.619 2.82653 12.83 3.03751C13.041 3.24849 13.1595 3.53464 13.1595 3.83301V10.0964L18.9551 6.61832C19.0818 6.5423 19.2222 6.49197 19.3684 6.47022C19.5145 6.44846 19.6635 6.4557 19.8068 6.49152C19.9502 6.52734 20.085 6.59105 20.2038 6.679C20.3225 6.76695 20.4227 6.87742 20.4987 7.0041C20.5747 7.13079 20.6251 7.2712 20.6468 7.41734C20.6686 7.56347 20.6613 7.71246 20.6255 7.8558C20.5897 7.99913 20.526 8.13401 20.438 8.25273C20.3501 8.37144 20.2396 8.47167 20.1129 8.5477L14.2208 12.083L20.1129 15.6183C20.3688 15.7718 20.5532 16.0205 20.6256 16.3099C20.698 16.5993 20.6526 16.9056 20.4992 17.1614Z" fill="white"/>
</svg>
