<svg width="25" height="25" viewBox="0 0 25 25" fill="none" xmlns="http://www.w3.org/2000/svg">
<path d="M22.9906 15.0332V15.0239C22.9889 15.0168 22.9867 15.0099 22.984 15.0032C22.9218 14.8334 22.8494 14.6675 22.7674 14.5064L18.8702 5.64885C18.8327 5.56354 18.7796 5.48596 18.7137 5.4201C18.4351 5.14146 18.1043 4.92042 17.7403 4.76961C17.3763 4.6188 16.9861 4.54118 16.5921 4.54118C16.1981 4.54118 15.8079 4.6188 15.4439 4.76961C15.0799 4.92042 14.7491 5.14146 14.4706 5.4201C14.3304 5.56042 14.2515 5.75053 14.2512 5.94885V8.2926H11.2512V5.94885C11.2513 5.85033 11.2319 5.75276 11.1943 5.66172C11.1566 5.57067 11.1014 5.48793 11.0318 5.41823C10.7532 5.13958 10.4225 4.91854 10.0584 4.76773C9.69443 4.61693 9.30426 4.53931 8.91024 4.53931C8.51622 4.53931 8.12605 4.61693 7.76203 4.76773C7.39801 4.91854 7.06726 5.13958 6.78868 5.41823C6.72273 5.48409 6.66964 5.56166 6.63211 5.64698L2.73868 14.5064C2.65666 14.6675 2.58435 14.8334 2.52211 15.0032C2.51951 15.0096 2.51731 15.0162 2.51555 15.0229C2.51555 15.0229 2.51555 15.0304 2.51555 15.0332C2.12835 16.152 2.19763 17.3783 2.70836 18.4463C3.21909 19.5144 4.13013 20.3381 5.24405 20.7391C6.35796 21.14 7.58501 21.0858 8.65926 20.5883C9.73351 20.0908 10.5684 19.1899 10.9831 18.081C11.1656 17.5829 11.2577 17.0562 11.2549 16.5257V9.7926H14.2549V16.5267C14.2522 17.0572 14.3442 17.5839 14.5268 18.082C14.9414 19.1909 15.7763 20.0917 16.8506 20.5892C17.9248 21.0868 19.1519 21.1409 20.2658 20.74C21.3797 20.3391 22.2908 19.5153 22.8015 18.4473C23.3122 17.3792 23.3815 16.1529 22.9943 15.0342L22.9906 15.0332ZM9.57024 17.5645C9.29329 18.3035 8.7363 18.9036 8.01998 19.2347C7.30365 19.5659 6.48568 19.6015 5.74331 19.3338C5.00093 19.066 4.39395 18.5166 4.05388 17.8044C3.7138 17.0923 3.66804 16.2748 3.92649 15.5292L4.09618 15.142C4.40806 14.5491 4.90938 14.0777 5.52026 13.8029C6.13115 13.528 6.81645 13.4655 7.46697 13.6254C8.11749 13.7852 8.69581 14.1582 9.10977 14.6848C9.52373 15.2114 9.74953 15.8615 9.75118 16.5314V16.5426C9.75112 16.8924 9.68989 17.2395 9.57024 17.5682V17.5645ZM19.7824 19.3617C19.3289 19.5277 18.8421 19.5817 18.3632 19.5193C17.8844 19.4568 17.4277 19.2797 17.0319 19.003C16.6362 18.7262 16.3131 18.3581 16.0901 17.9297C15.8672 17.5014 15.7509 17.0255 15.7512 16.5426V16.5323C15.7537 15.8627 15.98 15.2133 16.3943 14.6873C16.8086 14.1613 17.3869 13.7889 18.0372 13.6296C18.6875 13.4703 19.3724 13.533 19.9829 13.8079C20.5935 14.0829 21.0944 14.5541 21.4062 15.1467L21.5759 15.5339C21.8426 16.2794 21.8038 17.1002 21.4678 17.8173C21.1319 18.5343 20.526 19.0895 19.7824 19.3617Z" fill="white"/>
</svg>
