<svg width="25" height="25" viewBox="0 0 25 25" fill="none" xmlns="http://www.w3.org/2000/svg">
<path d="M10.1261 11.2088C10.2402 11.1429 10.3348 11.0482 10.4007 10.9342C10.4665 10.8201 10.5011 10.6908 10.5011 10.5591V3.80908C10.5004 3.68951 10.4712 3.57183 10.4158 3.46586C10.3604 3.35988 10.2805 3.26869 10.1827 3.19989C10.0849 3.13108 9.97206 3.08665 9.85361 3.07032C9.73515 3.05398 9.61451 3.0662 9.50174 3.10596C7.31266 3.88072 5.47172 5.41094 4.30988 7.42152C3.14804 9.43211 2.74148 11.7912 3.1633 14.0747C3.18517 14.1928 3.23507 14.3039 3.30881 14.3987C3.38255 14.4935 3.47797 14.5692 3.58705 14.6194C3.68535 14.6654 3.79259 14.6891 3.90111 14.6888C4.03275 14.6888 4.16208 14.6542 4.27611 14.5885L10.1261 11.2088ZM9.00111 4.94533V10.126L4.51236 12.7163C4.50111 12.5747 4.50111 12.4322 4.50111 12.2935C4.50244 10.7732 4.92326 9.28273 5.71723 7.98625C6.5112 6.68976 7.64753 5.6375 9.00111 4.94533ZM22.5011 12.2935C22.5019 14.4339 21.7982 16.5151 20.4988 18.2159C19.1994 19.9168 17.3763 21.1428 15.311 21.7048C13.2457 22.2668 11.0528 22.1335 9.0707 21.3255C7.08862 20.5175 5.4275 19.0798 4.34361 17.2341C4.29309 17.1488 4.25996 17.0544 4.24614 16.9563C4.23232 16.8581 4.23809 16.7582 4.26311 16.6624C4.28812 16.5665 4.3319 16.4765 4.3919 16.3976C4.4519 16.3187 4.52694 16.2525 4.61268 16.2028L12.0011 11.9025V3.29346C12.0011 3.09454 12.0801 2.90378 12.2208 2.76313C12.3614 2.62247 12.5522 2.54346 12.7511 2.54346C14.4526 2.54433 16.1242 2.99021 17.6 3.83684C19.0759 4.68347 20.3046 5.9014 21.1642 7.36971C21.1746 7.38471 21.1839 7.39971 21.1933 7.41565C21.2027 7.43158 21.2121 7.45033 21.2205 7.46721C22.0617 8.93643 22.5033 10.6004 22.5011 12.2935Z" fill="white"/>
</svg>
