<svg width="25" height="25" viewBox="0 0 25 25" fill="none" xmlns="http://www.w3.org/2000/svg">
<path d="M10.1261 11.5032C10.2402 11.4374 10.3348 11.3427 10.4007 11.2286C10.4665 11.1146 10.5011 10.9852 10.5011 10.8535V4.10352C10.5004 3.98394 10.4712 3.86626 10.4158 3.76029C10.3604 3.65432 10.2805 3.56312 10.1827 3.49432C10.0849 3.42551 9.97206 3.38109 9.85361 3.36475C9.73515 3.34841 9.61451 3.36063 9.50174 3.40039C7.31266 4.17515 5.47172 5.70537 4.30988 7.71596C3.14804 9.72654 2.74148 12.0856 3.1633 14.3691C3.18517 14.4872 3.23507 14.5983 3.30881 14.6931C3.38255 14.7879 3.47797 14.8636 3.58705 14.9138C3.68535 14.9598 3.79259 14.9835 3.90111 14.9832C4.03275 14.9833 4.16208 14.9487 4.27611 14.8829L10.1261 11.5032ZM9.00111 5.23977V10.4204L4.51236 13.0107C4.50111 12.8691 4.50111 12.7266 4.50111 12.5879C4.50244 11.0676 4.92326 9.57717 5.71723 8.28068C6.5112 6.98419 7.64753 5.93193 9.00111 5.23977ZM22.5011 12.5879C22.5019 14.7283 21.7982 16.8095 20.4988 18.5104C19.1994 20.2112 17.3763 21.4372 15.311 21.9992C13.2457 22.5612 11.0528 22.4279 9.0707 21.6199C7.08862 20.812 5.4275 19.3742 4.34361 17.5285C4.29309 17.4433 4.25996 17.3488 4.24614 17.2507C4.23232 17.1526 4.23809 17.0527 4.26311 16.9568C4.28812 16.8609 4.3319 16.7709 4.3919 16.692C4.4519 16.6132 4.52694 16.547 4.61268 16.4973L12.0011 12.197V3.58789C12.0011 3.38898 12.0801 3.19821 12.2208 3.05756C12.3614 2.91691 12.5522 2.83789 12.7511 2.83789C14.4526 2.83876 16.1242 3.28464 17.6 4.13127C19.0759 4.9779 20.3046 6.19583 21.1642 7.66414C21.1746 7.67914 21.1839 7.69414 21.1933 7.71008C21.2027 7.72602 21.2121 7.74477 21.2205 7.76164C22.0617 9.23086 22.5033 10.8949 22.5011 12.5879Z" fill="white"/>
</svg>
