<svg width="25" height="25" viewBox="0 0 25 25" fill="none" xmlns="http://www.w3.org/2000/svg">
<path d="M12.5107 2.51782C10.0252 2.52055 7.64219 3.50915 5.88463 5.26671C4.12707 7.02427 3.13847 9.40726 3.13574 11.8928V19.7678C3.13574 20.1656 3.29378 20.5472 3.57508 20.8285C3.85639 21.1098 4.23792 21.2678 4.63574 21.2678H12.5107C14.9971 21.2678 17.3817 20.2801 19.1399 18.5219C20.898 16.7638 21.8857 14.3792 21.8857 11.8928C21.8857 9.40642 20.898 7.02185 19.1399 5.2637C17.3817 3.50554 14.9971 2.51782 12.5107 2.51782ZM15.5107 14.5178H9.13574C8.93683 14.5178 8.74606 14.4388 8.60541 14.2982C8.46476 14.1575 8.38574 13.9667 8.38574 13.7678C8.38574 13.5689 8.46476 13.3781 8.60541 13.2375C8.74606 13.0968 8.93683 13.0178 9.13574 13.0178H15.5107C15.7097 13.0178 15.9004 13.0968 16.0411 13.2375C16.1817 13.3781 16.2607 13.5689 16.2607 13.7678C16.2607 13.9667 16.1817 14.1575 16.0411 14.2982C15.9004 14.4388 15.7097 14.5178 15.5107 14.5178ZM15.5107 11.5178H9.13574C8.93683 11.5178 8.74606 11.4388 8.60541 11.2982C8.46476 11.1575 8.38574 10.9667 8.38574 10.7678C8.38574 10.5689 8.46476 10.3781 8.60541 10.2375C8.74606 10.0968 8.93683 10.0178 9.13574 10.0178H15.5107C15.7097 10.0178 15.9004 10.0968 16.0411 10.2375C16.1817 10.3781 16.2607 10.5689 16.2607 10.7678C16.2607 10.9667 16.1817 11.1575 16.0411 11.2982C15.9004 11.4388 15.7097 11.5178 15.5107 11.5178Z" fill="white"/>
</svg>
