<svg width="25" height="25" viewBox="0 0 25 25" fill="none" xmlns="http://www.w3.org/2000/svg">
<path d="M13.252 6.98291V11.0198L16.6663 9.31166C16.7545 9.26759 16.8505 9.24131 16.9488 9.23432C17.0471 9.22734 17.1458 9.23978 17.2393 9.27095C17.3328 9.30211 17.4192 9.35139 17.4937 9.41596C17.5681 9.48053 17.6291 9.55914 17.6732 9.64729C17.7173 9.73544 17.7436 9.83141 17.7505 9.92971C17.7575 10.028 17.7451 10.1267 17.7139 10.2202C17.6828 10.3137 17.6335 10.4002 17.5689 10.4746C17.5043 10.5491 17.4257 10.6101 17.3376 10.6542L12.8376 12.9042C12.7232 12.9614 12.5961 12.9884 12.4683 12.9827C12.3405 12.977 12.2163 12.9386 12.1075 12.8714C11.9987 12.8041 11.909 12.7101 11.8467 12.5984C11.7845 12.4866 11.7519 12.3608 11.752 12.2329V6.98291C11.752 6.784 11.831 6.59324 11.9716 6.45258C12.1123 6.31193 12.303 6.23291 12.502 6.23291C12.7009 6.23291 12.8916 6.31193 13.0323 6.45258C13.1729 6.59324 13.252 6.784 13.252 6.98291ZM12.502 20.4829C10.8703 20.4829 9.27521 19.9991 7.9185 19.0925C6.5618 18.186 5.50437 16.8975 4.87995 15.3901C4.25553 13.8826 4.09215 12.2238 4.41048 10.6234C4.72881 9.02308 5.51454 7.55307 6.66833 6.39928C7.82211 5.2455 9.29212 4.45976 10.8925 4.14144C12.4928 3.82311 14.1516 3.98649 15.6591 4.61091C17.1666 5.23533 18.4551 6.29275 19.3616 7.64946C20.2681 9.00617 20.752 10.6012 20.752 12.2329C20.752 12.4318 20.831 12.6226 20.9716 12.7632C21.1123 12.9039 21.303 12.9829 21.502 12.9829C21.7009 12.9829 21.8916 12.9039 22.0323 12.7632C22.1729 12.6226 22.252 12.4318 22.252 12.2329C22.252 10.3045 21.6801 8.41948 20.6088 6.8161C19.5374 5.21273 18.0147 3.96304 16.2331 3.22509C14.4515 2.48713 12.4911 2.29405 10.5998 2.67026C8.70851 3.04646 6.97123 3.97506 5.60767 5.33862C4.2441 6.70219 3.31551 8.43947 2.9393 10.3308C2.5631 12.2221 2.75618 14.1825 3.49413 15.9641C4.23209 17.7457 5.48177 19.2684 7.08515 20.3397C8.68853 21.4111 10.5736 21.9829 12.502 21.9829C12.7009 21.9829 12.8916 21.9039 13.0323 21.7632C13.1729 21.6226 13.252 21.4318 13.252 21.2329C13.252 21.034 13.1729 20.8432 13.0323 20.7026C12.8916 20.5619 12.7009 20.4829 12.502 20.4829ZM20.6226 18.8535C21.0423 18.4341 21.3283 17.8995 21.4442 17.3175C21.5601 16.7355 21.5008 16.1322 21.2738 15.5839C21.0468 15.0356 20.6623 14.567 20.1689 14.2373C19.6755 13.9075 19.0954 13.7315 18.502 13.7315C17.9085 13.7315 17.3284 13.9075 16.835 14.2373C16.3417 14.567 15.9571 15.0356 15.7301 15.5839C15.5031 16.1322 15.4438 16.7355 15.5597 17.3175C15.6757 17.8995 15.9616 18.4341 16.3813 18.8535C15.5915 19.3581 15.0193 20.14 14.7773 21.0454C14.7487 21.1561 14.7458 21.2719 14.7688 21.3839C14.7918 21.4959 14.8401 21.6011 14.9101 21.6916C14.98 21.7821 15.0697 21.8553 15.1723 21.9058C15.2748 21.9563 15.3876 21.9827 15.502 21.9829H21.502C21.6169 21.9829 21.7303 21.9565 21.8334 21.9057C21.9366 21.8549 22.0266 21.781 22.0966 21.6899C22.1667 21.5987 22.2148 21.4927 22.2374 21.38C22.2599 21.2673 22.2562 21.1509 22.2266 21.0398C21.9834 20.1365 21.4113 19.3567 20.6226 18.8535Z" fill="white"/>
</svg>
