<svg width="25" height="25" viewBox="0 0 25 25" fill="none" xmlns="http://www.w3.org/2000/svg">
<path d="M22.0625 11.3069H21.2806C21.1007 9.18761 20.177 7.20026 18.6731 5.69632C17.1691 4.19237 15.1818 3.26873 13.0625 3.08876V2.30688C13.0625 2.10797 12.9835 1.91721 12.8428 1.77655C12.7022 1.6359 12.5114 1.55688 12.3125 1.55688C12.1136 1.55688 11.9228 1.6359 11.7822 1.77655C11.6415 1.91721 11.5625 2.10797 11.5625 2.30688V3.08876C9.44323 3.26873 7.45588 4.19237 5.95193 5.69632C4.44799 7.20026 3.52435 9.18761 3.34438 11.3069H2.5625C2.36359 11.3069 2.17282 11.3859 2.03217 11.5266C1.89152 11.6672 1.8125 11.858 1.8125 12.0569C1.8125 12.2558 1.89152 12.4466 2.03217 12.5872C2.17282 12.7279 2.36359 12.8069 2.5625 12.8069H3.34438C3.52435 14.9262 4.44799 16.9135 5.95193 18.4175C7.45588 19.9214 9.44323 20.845 11.5625 21.025V21.8069C11.5625 22.0058 11.6415 22.1966 11.7822 22.3372C11.9228 22.4779 12.1136 22.5569 12.3125 22.5569C12.5114 22.5569 12.7022 22.4779 12.8428 22.3372C12.9835 22.1966 13.0625 22.0058 13.0625 21.8069V21.025C15.1818 20.845 17.1691 19.9214 18.6731 18.4175C20.177 16.9135 21.1007 14.9262 21.2806 12.8069H22.0625C22.2614 12.8069 22.4522 12.7279 22.5928 12.5872C22.7335 12.4466 22.8125 12.2558 22.8125 12.0569C22.8125 11.858 22.7335 11.6672 22.5928 11.5266C22.4522 11.3859 22.2614 11.3069 22.0625 11.3069ZM19.0625 12.8069H19.775C19.5995 14.5273 18.8358 16.1345 17.613 17.3574C16.3902 18.5802 14.7829 19.3438 13.0625 19.5194V18.8069C13.0625 18.608 12.9835 18.4172 12.8428 18.2766C12.7022 18.1359 12.5114 18.0569 12.3125 18.0569C12.1136 18.0569 11.9228 18.1359 11.7822 18.2766C11.6415 18.4172 11.5625 18.608 11.5625 18.8069V19.5194C9.84207 19.3438 8.23485 18.5802 7.012 17.3574C5.78916 16.1345 5.02555 14.5273 4.85 12.8069H5.5625C5.76141 12.8069 5.95218 12.7279 6.09283 12.5872C6.23348 12.4466 6.3125 12.2558 6.3125 12.0569C6.3125 11.858 6.23348 11.6672 6.09283 11.5266C5.95218 11.3859 5.76141 11.3069 5.5625 11.3069H4.85C5.02555 9.58645 5.78916 7.97923 7.012 6.75639C8.23485 5.53354 9.84207 4.76993 11.5625 4.59438V5.30688C11.5625 5.5058 11.6415 5.69656 11.7822 5.83721C11.9228 5.97787 12.1136 6.05688 12.3125 6.05688C12.5114 6.05688 12.7022 5.97787 12.8428 5.83721C12.9835 5.69656 13.0625 5.5058 13.0625 5.30688V4.59438C14.7829 4.76993 16.3902 5.53354 17.613 6.75639C18.8358 7.97923 19.5995 9.58645 19.775 11.3069H19.0625C18.8636 11.3069 18.6728 11.3859 18.5322 11.5266C18.3915 11.6672 18.3125 11.858 18.3125 12.0569C18.3125 12.2558 18.3915 12.4466 18.5322 12.5872C18.6728 12.7279 18.8636 12.8069 19.0625 12.8069ZM16.0625 12.0569C16.0625 12.7986 15.8426 13.5236 15.4305 14.1403C15.0185 14.757 14.4328 15.2376 13.7476 15.5214C13.0623 15.8053 12.3083 15.8795 11.5809 15.7348C10.8535 15.5901 10.1853 15.233 9.66085 14.7085C9.1364 14.1841 8.77925 13.5159 8.63455 12.7885C8.48986 12.061 8.56412 11.307 8.84795 10.6218C9.13178 9.9366 9.61243 9.35093 10.2291 8.93887C10.8458 8.52682 11.5708 8.30688 12.3125 8.30688C13.3071 8.30688 14.2609 8.70197 14.9642 9.40523C15.6674 10.1085 16.0625 11.0623 16.0625 12.0569Z" fill="white"/>
</svg>
