<svg width="25" height="25" viewBox="0 0 25 25" fill="none" xmlns="http://www.w3.org/2000/svg">
<path d="M12.3447 2.30957C7.29816 2.30957 3.34473 4.61582 3.34473 7.55957V16.5596C3.34473 19.5033 7.29816 21.8096 12.3447 21.8096C17.3913 21.8096 21.3447 19.5033 21.3447 16.5596V7.55957C21.3447 4.61582 17.3913 2.30957 12.3447 2.30957ZM19.8447 12.0596C19.8447 12.9614 19.106 13.8811 17.8188 14.5833C16.3694 15.3736 14.425 15.8096 12.3447 15.8096C10.2644 15.8096 8.32004 15.3736 6.87066 14.5833C5.58348 13.8811 4.84473 12.9614 4.84473 12.0596V10.4996C6.4441 11.9058 9.17879 12.8096 12.3447 12.8096C15.5107 12.8096 18.2454 11.9021 19.8447 10.4996V12.0596ZM17.8188 19.0833C16.3694 19.8736 14.425 20.3096 12.3447 20.3096C10.2644 20.3096 8.32004 19.8736 6.87066 19.0833C5.58348 18.3811 4.84473 17.4614 4.84473 16.5596V14.9996C6.4441 16.4058 9.17879 17.3096 12.3447 17.3096C15.5107 17.3096 18.2454 16.4021 19.8447 14.9996V16.5596C19.8447 17.4614 19.106 18.3811 17.8188 19.0833Z" fill="white"/>
</svg>
