<svg width="25" height="25" viewBox="0 0 25 25" fill="none" xmlns="http://www.w3.org/2000/svg">
<path d="M18.0291 4.10751C18.0096 4.09085 17.9892 4.07521 17.9681 4.06063C17.9466 4.04563 17.9241 4.03157 17.9016 4.01845C15.8144 2.50979 13.2146 1.8895 10.6712 2.29335C8.1278 2.69721 5.848 4.09232 4.33087 6.17328C2.81375 8.25423 2.1829 10.8515 2.57641 13.3965C2.96993 15.9416 4.35576 18.227 6.43054 19.7526C8.50531 21.2782 11.1 21.9196 13.6466 21.5364C16.1932 21.1532 18.4843 19.7767 20.0183 17.7081C21.5523 15.6396 22.2042 13.0475 21.8314 10.4994C21.4586 7.95122 20.0914 5.65458 18.0291 4.1122V4.10751ZM12.3759 14.2972C11.9309 14.2972 11.4959 14.1652 11.1259 13.918C10.7559 13.6708 10.4675 13.3194 10.2972 12.9082C10.1269 12.4971 10.0823 12.0447 10.1692 11.6082C10.256 11.1718 10.4703 10.7709 10.7849 10.4562C11.0996 10.1415 11.5005 9.92725 11.937 9.84043C12.3734 9.75361 12.8258 9.79817 13.237 9.96847C13.6481 10.1388 13.9995 10.4272 14.2467 10.7972C14.494 11.1672 14.6259 11.6022 14.6259 12.0472C14.6259 12.6439 14.3889 13.2162 13.9669 13.6382C13.545 14.0601 12.9727 14.2972 12.3759 14.2972ZM20.6259 12.0472C20.6259 12.2788 20.6156 12.5084 20.5969 12.7353L16.1259 11.9459C16.1007 11.0214 15.7332 10.1391 15.0947 9.47001L17.6991 5.75095C18.6162 6.52382 19.3533 7.48778 19.8589 8.57536C20.3644 9.66293 20.6262 10.8479 20.6259 12.0472Z" fill="white"/>
</svg>
