<svg width="13" height="14" viewBox="0 0 13 14" fill="none" xmlns="http://www.w3.org/2000/svg">
<path d="M11.375 2.74512H1.625C1.51726 2.74512 1.41392 2.78792 1.33774 2.86411C1.26155 2.94029 1.21875 3.04362 1.21875 3.15137V10.0576C1.21875 10.2731 1.30435 10.4798 1.45673 10.6321C1.6091 10.7845 1.81576 10.8701 2.03125 10.8701H10.9688C11.1842 10.8701 11.3909 10.7845 11.5433 10.6321C11.6956 10.4798 11.7812 10.2731 11.7812 10.0576V3.15137C11.7812 3.04362 11.7384 2.94029 11.6623 2.86411C11.5861 2.78792 11.4827 2.74512 11.375 2.74512ZM5.01262 6.80762L2.03125 9.54016V4.07508L5.01262 6.80762ZM5.61387 7.35859L6.22324 7.91973C6.29819 7.98853 6.39623 8.0267 6.49797 8.0267C6.59971 8.0267 6.69775 7.98853 6.7727 7.91973L7.38207 7.35859L10.3274 10.0576H2.66957L5.61387 7.35859ZM7.98738 6.80762L10.9688 4.07457V9.54066L7.98738 6.80762Z" fill="white"/>
</svg>
