<svg width="25" height="25" viewBox="0 0 25 25" fill="none" xmlns="http://www.w3.org/2000/svg">
<path d="M23.6355 12.0683C23.6027 11.9943 22.8086 10.2327 21.0433 8.46738C18.6911 6.1152 15.7202 4.87207 12.4502 4.87207C9.18019 4.87207 6.20925 6.1152 3.85706 8.46738C2.09175 10.2327 1.29394 11.9971 1.26487 12.0683C1.22223 12.1642 1.2002 12.268 1.2002 12.373C1.2002 12.478 1.22223 12.5818 1.26487 12.6777C1.29769 12.7518 2.09175 14.5124 3.85706 16.2777C6.20925 18.6289 9.18019 19.8721 12.4502 19.8721C15.7202 19.8721 18.6911 18.6289 21.0433 16.2777C22.8086 14.5124 23.6027 12.7518 23.6355 12.6777C23.6781 12.5818 23.7002 12.478 23.7002 12.373C23.7002 12.268 23.6781 12.1642 23.6355 12.0683ZM12.4502 16.1221C11.7085 16.1221 10.9835 15.9021 10.3668 15.4901C9.75011 15.078 9.26947 14.4924 8.98564 13.8071C8.70181 13.1219 8.62755 12.3679 8.77224 11.6405C8.91694 10.9131 9.27409 10.2449 9.79854 9.72042C10.323 9.19597 10.9912 8.83882 11.7186 8.69413C12.446 8.54943 13.2 8.62369 13.8853 8.90752C14.5705 9.19135 15.1561 9.672 15.5682 10.2887C15.9803 10.9054 16.2002 11.6304 16.2002 12.3721C16.2002 13.3666 15.8051 14.3205 15.1018 15.0237C14.3986 15.727 13.4447 16.1221 12.4502 16.1221Z" fill="white"/>
</svg>
