<svg width="25" height="25" viewBox="0 0 25 25" fill="none" xmlns="http://www.w3.org/2000/svg">
<path d="M13.1893 12.0186V20.6436C13.1893 20.9419 13.0708 21.2281 12.8598 21.439C12.6488 21.65 12.3627 21.7686 12.0643 21.7686C11.766 21.7686 11.4798 21.65 11.2688 21.439C11.0579 21.2281 10.9393 20.9419 10.9393 20.6436V12.0186C10.9393 11.7202 11.0579 11.434 11.2688 11.2231C11.4798 11.0121 11.766 10.8936 12.0643 10.8936C12.3627 10.8936 12.6488 11.0121 12.8598 11.2231C13.0708 11.434 13.1893 11.7202 13.1893 12.0186ZM18.8143 18.3936C18.516 18.3936 18.2298 18.5121 18.0188 18.7231C17.8079 18.934 17.6893 19.2202 17.6893 19.5186V20.6436C17.6893 20.9419 17.8079 21.2281 18.0188 21.439C18.2298 21.65 18.516 21.7686 18.8143 21.7686C19.1127 21.7686 19.3988 21.65 19.6098 21.439C19.8208 21.2281 19.9393 20.9419 19.9393 20.6436V19.5186C19.9393 19.2202 19.8208 18.934 19.6098 18.7231C19.3988 18.5121 19.1127 18.3936 18.8143 18.3936ZM21.0643 14.6436H19.9393V4.14355C19.9393 3.84519 19.8208 3.55904 19.6098 3.34806C19.3988 3.13708 19.1127 3.01855 18.8143 3.01855C18.516 3.01855 18.2298 3.13708 18.0188 3.34806C17.8079 3.55904 17.6893 3.84519 17.6893 4.14355V14.6436H16.5643C16.266 14.6436 15.9798 14.7621 15.7688 14.9731C15.5579 15.184 15.4393 15.4702 15.4393 15.7686C15.4393 16.0669 15.5579 16.3531 15.7688 16.564C15.9798 16.775 16.266 16.8936 16.5643 16.8936H21.0643C21.3627 16.8936 21.6488 16.775 21.8598 16.564C22.0708 16.3531 22.1893 16.0669 22.1893 15.7686C22.1893 15.4702 22.0708 15.184 21.8598 14.9731C21.6488 14.7621 21.3627 14.6436 21.0643 14.6436ZM5.31433 15.3936C5.01596 15.3936 4.72981 15.5121 4.51884 15.7231C4.30786 15.934 4.18933 16.2202 4.18933 16.5186V20.6436C4.18933 20.9419 4.30786 21.2281 4.51884 21.439C4.72981 21.65 5.01596 21.7686 5.31433 21.7686C5.6127 21.7686 5.89885 21.65 6.10983 21.439C6.3208 21.2281 6.43933 20.9419 6.43933 20.6436V16.5186C6.43933 16.2202 6.3208 15.934 6.10983 15.7231C5.89885 15.5121 5.6127 15.3936 5.31433 15.3936ZM7.56433 11.6436H6.43933V4.14355C6.43933 3.84519 6.3208 3.55904 6.10983 3.34806C5.89885 3.13708 5.6127 3.01855 5.31433 3.01855C5.01596 3.01855 4.72981 3.13708 4.51884 3.34806C4.30786 3.55904 4.18933 3.84519 4.18933 4.14355V11.6436H3.06433C2.76596 11.6436 2.47981 11.7621 2.26884 11.9731C2.05786 12.184 1.93933 12.4702 1.93933 12.7686C1.93933 13.0669 2.05786 13.3531 2.26884 13.564C2.47981 13.775 2.76596 13.8936 3.06433 13.8936H7.56433C7.8627 13.8936 8.14885 13.775 8.35983 13.564C8.5708 13.3531 8.68933 13.0669 8.68933 12.7686C8.68933 12.4702 8.5708 12.184 8.35983 11.9731C8.14885 11.7621 7.8627 11.6436 7.56433 11.6436ZM14.3143 7.14355H13.1893V4.14355C13.1893 3.84519 13.0708 3.55904 12.8598 3.34806C12.6488 3.13708 12.3627 3.01855 12.0643 3.01855C11.766 3.01855 11.4798 3.13708 11.2688 3.34806C11.0579 3.55904 10.9393 3.84519 10.9393 4.14355V7.14355H9.81433C9.51596 7.14355 9.22981 7.26208 9.01884 7.47306C8.80786 7.68404 8.68933 7.97019 8.68933 8.26855C8.68933 8.56692 8.80786 8.85307 9.01884 9.06405C9.22981 9.27503 9.51596 9.39355 9.81433 9.39355H14.3143C14.6127 9.39355 14.8988 9.27503 15.1098 9.06405C15.3208 8.85307 15.4393 8.56692 15.4393 8.26855C15.4393 7.97019 15.3208 7.68404 15.1098 7.47306C14.8988 7.26208 14.6127 7.14355 14.3143 7.14355Z" fill="white"/>
</svg>
