<svg width="21" height="23" viewBox="0 0 21 23" fill="none" xmlns="http://www.w3.org/2000/svg">
<path d="M17.3775 11.6149L12.4729 16.8115C12.3527 16.9389 12.2097 17.04 12.0519 17.109C11.8942 17.1781 11.725 17.2136 11.5541 17.2137H6.17859L3.74555 19.766C3.68457 19.8299 3.61219 19.8806 3.53252 19.9151C3.45286 19.9497 3.36748 19.9675 3.28125 19.9675C3.19502 19.9675 3.10964 19.9497 3.02997 19.9151C2.95031 19.8806 2.87792 19.8299 2.81695 19.766C2.75598 19.7022 2.70761 19.6263 2.67462 19.5429C2.64162 19.4594 2.62463 19.37 2.62463 19.2796C2.62463 19.1893 2.64162 19.0998 2.67462 19.0164C2.70761 18.9329 2.75598 18.8571 2.81695 18.7932L4.67004 16.8527L10.2293 11.0296H17.1445C17.2092 11.0297 17.2724 11.0499 17.3262 11.0875C17.38 11.1251 17.4219 11.1785 17.4468 11.2411C17.4717 11.3036 17.4784 11.3724 17.4661 11.4389C17.4537 11.5054 17.4229 11.5666 17.3775 11.6149ZM17.7762 2.65674C16.7692 1.78862 15.4899 1.34418 14.1874 1.40995C12.8848 1.47571 11.6523 2.04698 10.7297 3.01252L9.94219 3.8272C9.88016 3.89088 9.84477 3.97772 9.84375 4.06869V9.48275L14.3555 4.75619C14.4795 4.6327 14.6448 4.56487 14.8159 4.56717C14.987 4.56946 15.1505 4.6417 15.2715 4.76848C15.3925 4.89525 15.4615 5.06654 15.4637 5.24581C15.4659 5.42508 15.4011 5.59816 15.2832 5.72814L11.5426 9.65463H18.7925C18.8528 9.65476 18.9119 9.63751 18.9634 9.60476C19.0149 9.57202 19.0569 9.52505 19.0846 9.469C19.6469 8.3489 19.8238 7.06008 19.5855 5.81938C19.3472 4.57868 18.7083 3.46182 17.7762 2.65674ZM5.15402 14.401L8.53125 10.8629V6.11056C8.53114 6.04282 8.51192 5.97661 8.47602 5.92027C8.44011 5.86392 8.38911 5.81995 8.32942 5.79388C8.26973 5.7678 8.20402 5.76078 8.14054 5.7737C8.07706 5.78662 8.01864 5.81891 7.97262 5.8665L4.97848 8.96713C4.85622 9.09446 4.75926 9.24592 4.69323 9.41275C4.62719 9.57958 4.59338 9.75847 4.59375 9.93908V14.1578C4.5937 14.2258 4.61291 14.2923 4.64897 14.3489C4.68502 14.4054 4.73628 14.4495 4.79627 14.4756C4.85626 14.5016 4.92227 14.5084 4.98596 14.4952C5.04964 14.4819 5.10813 14.4491 5.15402 14.401Z" fill="white"/>
</svg>
