<svg width="25" height="25" viewBox="0 0 25 25" fill="none" xmlns="http://www.w3.org/2000/svg">
<path d="M14.377 14.0269C14.377 14.3977 14.267 14.7602 14.061 15.0686C13.8549 15.3769 13.5621 15.6172 13.2195 15.7591C12.8769 15.901 12.4999 15.9382 12.1362 15.8658C11.7724 15.7935 11.4384 15.6149 11.1761 15.3527C10.9139 15.0905 10.7353 14.7564 10.663 14.3927C10.5906 14.0289 10.6278 13.6519 10.7697 13.3093C10.9116 12.9667 11.1519 12.6739 11.4603 12.4678C11.7686 12.2618 12.1311 12.1519 12.502 12.1519C12.9992 12.1519 13.4761 12.3494 13.8278 12.701C14.1794 13.0527 14.377 13.5296 14.377 14.0269ZM21.127 8.40186V20.4019C21.127 20.7997 20.9689 21.1812 20.6876 21.4625C20.4063 21.7438 20.0248 21.9019 19.627 21.9019H6.12695C5.72913 21.9019 5.3476 21.7438 5.06629 21.4625C4.78499 21.1812 4.62695 20.7997 4.62695 20.4019V3.90186C4.62695 3.50403 4.78499 3.1225 5.06629 2.8412C5.3476 2.55989 5.72913 2.40186 6.12695 2.40186H15.127C15.2255 2.40178 15.323 2.42111 15.4141 2.45875C15.5051 2.49639 15.5879 2.5516 15.6576 2.62123L20.9076 7.87123C20.9772 7.94093 21.0324 8.02367 21.0701 8.11472C21.1077 8.20576 21.127 8.30334 21.127 8.40186ZM16.4076 16.8712L15.3576 15.8222C15.8002 15.1188 15.9682 14.2771 15.8294 13.4577C15.6906 12.6383 15.2548 11.8988 14.6053 11.3805C13.9557 10.8621 13.138 10.6012 12.3083 10.6477C11.4785 10.6941 10.695 11.0446 10.1074 11.6323C9.51974 12.2199 9.16922 13.0034 9.12277 13.8332C9.07631 14.6629 9.33719 15.4806 9.85556 16.1302C10.3739 16.7797 11.1134 17.2155 11.9328 17.3543C12.7522 17.4931 13.5939 17.3251 14.2973 16.8825L15.3463 17.9325C15.416 18.0022 15.4987 18.0574 15.5898 18.0951C15.6808 18.1329 15.7784 18.1523 15.877 18.1523C15.9755 18.1523 16.0731 18.1329 16.1641 18.0951C16.2552 18.0574 16.3379 18.0022 16.4076 17.9325C16.4773 17.8628 16.5325 17.7801 16.5702 17.689C16.608 17.598 16.6274 17.5004 16.6274 17.4019C16.6274 17.3033 16.608 17.2057 16.5702 17.1147C16.5325 17.0236 16.4773 16.9409 16.4076 16.8712ZM19.252 8.40186L15.127 4.27686V8.40186H19.252Z" fill="white"/>
</svg>
