<svg width="25" height="25" viewBox="0 0 25 25" fill="none" xmlns="http://www.w3.org/2000/svg">
<path d="M15.568 20.7623C15.6434 20.8753 15.6867 21.0066 15.6933 21.1423C15.6998 21.278 15.6694 21.4128 15.6053 21.5326C15.5412 21.6523 15.4458 21.7524 15.3293 21.8221C15.2128 21.8919 15.0795 21.9287 14.9437 21.9286H2.94365C2.8089 21.9286 2.67662 21.8924 2.56073 21.8236C2.44483 21.7549 2.3496 21.6562 2.28504 21.5379C2.22048 21.4196 2.18898 21.2861 2.19385 21.1515C2.19872 21.0168 2.23978 20.886 2.31271 20.7727L5.68771 15.5227C5.75562 15.417 5.84898 15.3301 5.95922 15.2699C6.06946 15.2097 6.19305 15.1781 6.31865 15.1781C6.44425 15.1781 6.56785 15.2097 6.67809 15.2699C6.78832 15.3301 6.88168 15.417 6.94959 15.5227L7.86459 16.9458L9.81927 14.0123C9.88774 13.9095 9.98056 13.8251 10.0895 13.7667C10.1984 13.7084 10.3201 13.6779 10.4437 13.6779C10.5672 13.6779 10.6889 13.7084 10.7978 13.7667C10.9067 13.8251 10.9996 13.9095 11.068 14.0123L15.568 20.7623ZM20.9437 8.42859V20.4286C20.9437 20.8264 20.7856 21.2079 20.5043 21.4892C20.223 21.7706 19.8415 21.9286 19.4437 21.9286H18.6937C18.4947 21.9286 18.304 21.8496 18.1633 21.7089C18.0227 21.5683 17.9437 21.3775 17.9437 21.1786C17.9437 20.9797 18.0227 20.7889 18.1633 20.6483C18.304 20.5076 18.4947 20.4286 18.6937 20.4286H19.4437V9.17859H14.9437C14.7447 9.17859 14.554 9.09957 14.4133 8.95892C14.2727 8.81827 14.1937 8.6275 14.1937 8.42859V3.92859H5.94365V12.1786C5.94365 12.3775 5.86463 12.5683 5.72398 12.7089C5.58333 12.8496 5.39256 12.9286 5.19365 12.9286C4.99474 12.9286 4.80397 12.8496 4.66332 12.7089C4.52267 12.5683 4.44365 12.3775 4.44365 12.1786V3.92859C4.44365 3.53076 4.60169 3.14923 4.88299 2.86793C5.16429 2.58662 5.54583 2.42859 5.94365 2.42859H14.9437C15.0422 2.42851 15.1397 2.44785 15.2308 2.48549C15.3218 2.52313 15.4046 2.57834 15.4743 2.64796L20.7243 7.89796C20.7939 7.96767 20.8491 8.05041 20.8868 8.14145C20.9244 8.2325 20.9437 8.33007 20.9437 8.42859ZM15.6937 7.67859H18.3833L15.6937 4.9889V7.67859Z" fill="white"/>
</svg>
