<svg width="21" height="21" viewBox="0 0 21 21" fill="none" xmlns="http://www.w3.org/2000/svg">
<g clip-path="url(#clip0_192_352)">
<path d="M12 15.75H9.00006V12.75H12L12 15.75ZM15 13.1903L13.2803 11.4697C13.2108 11.3999 13.1281 11.3446 13.0371 11.3069C12.9461 11.2692 12.8485 11.2499 12.75 11.25H8.25001C7.83575 11.25 7.49999 11.5858 7.49999 12V16.5C7.49999 16.6952 7.5746 16.873 7.69679 17.0064L9.44077 18.75H6.74994C6.33572 18.75 5.99997 18.4142 5.99997 18V10.5C5.99997 10.0857 6.33572 9.74998 6.74994 9.74998H14.2501C14.6643 9.74998 15 10.0858 15 10.5L15 13.1903ZM19.5001 15.75L18 14.25L18.002 11.248L19.5001 9.74994V15.75ZM11.2483 3.95184C10.2506 4.52709 10.2506 5.97289 11.2483 6.54813C12.246 7.12334 13.5 6.40039 13.5 5.24999C13.5 4.09958 12.246 3.37664 11.2483 3.95184ZM19.5001 8.24999L16.5001 11.25V9.74998C16.5001 9.0322 15.9958 8.43255 15.3223 8.28506C16.0538 7.48485 16.5001 6.41959 16.5001 5.25003C16.5001 2.76473 14.4854 0.75 12 0.75C9.62998 0.75 7.68789 2.58229 7.51291 4.90763C6.71524 4.18813 5.65884 3.75001 4.50003 3.75001C2.01473 3.75001 0 5.76469 0 8.25004C0 10.7353 2.01473 12.75 4.49999 12.75H3.00001V15.75H4.49999V18.75C4.49999 19.5784 5.17154 20.25 6.00001 20.25H15C15.8285 20.25 16.5 19.5784 16.5 18.75V17.2499L19.5 20.2499H21V8.24999H19.5001ZM6.00001 8.24999C6.00001 7.09959 4.76401 6.40897 3.7483 6.95185C2.62767 7.55088 2.70104 9.63427 4.50003 9.74998V11.2499C1.19007 11.1443 0.519545 7.05468 2.9966 5.65379C5.00153 4.51987 7.49999 5.94918 7.49999 8.25004L6.00001 8.24999ZM10.4967 7.84624C8.50119 6.69583 8.50119 3.80415 10.4967 2.65374C12.4922 1.50333 15 2.94913 15 5.24999C15 7.55084 12.4921 8.99668 10.4966 7.84628" fill="white"/>
</g>
<defs>
<clipPath id="clip0_192_352">
<rect width="21" height="21" fill="white"/>
</clipPath>
</defs>
</svg>
