<svg width="25" height="25" viewBox="0 0 25 25" fill="none" xmlns="http://www.w3.org/2000/svg">
<path d="M8.43896 21.353C8.43896 21.5519 8.35995 21.7427 8.21929 21.8834C8.07864 22.024 7.88788 22.103 7.68896 22.103H6.18896C5.79114 22.103 5.40961 21.945 5.1283 21.6637C4.847 21.3824 4.68896 21.0009 4.68896 20.603V17.603C4.68896 17.4041 4.76798 17.2133 4.90863 17.0727C5.04929 16.932 5.24005 16.853 5.43896 16.853C5.63788 16.853 5.82864 16.932 5.96929 17.0727C6.10995 17.2133 6.18896 17.4041 6.18896 17.603V20.603H7.68896C7.88788 20.603 8.07864 20.682 8.21929 20.8227C8.35995 20.9633 8.43896 21.1541 8.43896 21.353ZM20.9696 8.0724L15.7196 2.8224C15.6499 2.75278 15.5671 2.69757 15.4761 2.65993C15.3851 2.62228 15.2875 2.60295 15.189 2.60303H12.189C11.9901 2.60303 11.7993 2.68205 11.6586 2.8227C11.518 2.96335 11.439 3.15412 11.439 3.35303C11.439 3.55194 11.518 3.74271 11.6586 3.88336C11.7993 4.02401 11.9901 4.10303 12.189 4.10303H14.439V8.60303C14.439 8.80194 14.518 8.9927 14.6586 9.13336C14.7993 9.27401 14.9901 9.35303 15.189 9.35303H19.689V13.103C19.689 13.3019 19.768 13.4927 19.9086 13.6334C20.0493 13.774 20.2401 13.853 20.439 13.853C20.6379 13.853 20.8286 13.774 20.9693 13.6334C21.1099 13.4927 21.189 13.3019 21.189 13.103V8.60303C21.189 8.50451 21.1697 8.40694 21.1321 8.31589C21.0944 8.22484 21.0392 8.14211 20.9696 8.0724ZM8.43896 2.60303H6.18896C5.79114 2.60303 5.40961 2.76106 5.1283 3.04237C4.847 3.32367 4.68896 3.7052 4.68896 4.10303V6.35303C4.68896 6.55194 4.76798 6.74271 4.90863 6.88336C5.04929 7.02401 5.24005 7.10303 5.43896 7.10303C5.63788 7.10303 5.82864 7.02401 5.96929 6.88336C6.10995 6.74271 6.18896 6.55194 6.18896 6.35303V4.10303H8.43896C8.63788 4.10303 8.82864 4.02401 8.96929 3.88336C9.10995 3.74271 9.18896 3.55194 9.18896 3.35303C9.18896 3.15412 9.10995 2.96335 8.96929 2.8227C8.82864 2.68205 8.63788 2.60303 8.43896 2.60303ZM20.439 16.103C20.2401 16.103 20.0493 16.182 19.9086 16.3227C19.768 16.4633 19.689 16.6541 19.689 16.853V20.603H18.939C18.7401 20.603 18.5493 20.682 18.4086 20.8227C18.268 20.9633 18.189 21.1541 18.189 21.353C18.189 21.5519 18.268 21.7427 18.4086 21.8834C18.5493 22.024 18.7401 22.103 18.939 22.103H19.689C20.0868 22.103 20.4683 21.945 20.7496 21.6637C21.0309 21.3824 21.189 21.0009 21.189 20.603V16.853C21.189 16.6541 21.1099 16.4633 20.9693 16.3227C20.8286 16.182 20.6379 16.103 20.439 16.103ZM5.43896 14.603C5.63788 14.603 5.82864 14.524 5.96929 14.3834C6.10995 14.2427 6.18896 14.0519 6.18896 13.853V10.103C6.18896 9.90412 6.10995 9.71335 5.96929 9.5727C5.82864 9.43204 5.63788 9.35303 5.43896 9.35303C5.24005 9.35303 5.04929 9.43204 4.90863 9.5727C4.76798 9.71335 4.68896 9.90412 4.68896 10.103V13.853C4.68896 14.0519 4.76798 14.2427 4.90863 14.3834C5.04929 14.524 5.24005 14.603 5.43896 14.603ZM15.189 20.603H11.439C11.2401 20.603 11.0493 20.682 10.9086 20.8227C10.768 20.9633 10.689 21.1541 10.689 21.353C10.689 21.5519 10.768 21.7427 10.9086 21.8834C11.0493 22.024 11.2401 22.103 11.439 22.103H15.189C15.3879 22.103 15.5786 22.024 15.7193 21.8834C15.8599 21.7427 15.939 21.5519 15.939 21.353C15.939 21.1541 15.8599 20.9633 15.7193 20.8227C15.5786 20.682 15.3879 20.603 15.189 20.603Z" fill="white"/>
</svg>
