<svg width="21" height="20" viewBox="0 0 21 20" fill="none" xmlns="http://www.w3.org/2000/svg">
<g clip-path="url(#clip0_83_1013)">
<path d="M19.9951 6.8501L17.4951 9.2251C17.3779 9.33651 17.2188 9.3991 17.0529 9.3991C16.8871 9.3991 16.728 9.33651 16.6108 9.2251C16.4935 9.11368 16.4276 8.96258 16.4276 8.80502C16.4276 8.64746 16.4935 8.49635 16.6108 8.38494L18.0443 7.02377H17.0529C14.0318 7.02377 13.4131 8.43392 12.6295 10.2211C11.8225 12.0617 10.9068 14.1488 7.05294 14.1488H6.97481C6.82269 14.7085 6.46092 15.1963 5.95731 15.5207C5.4537 15.8451 4.84282 15.9839 4.23919 15.9111C3.63555 15.8382 3.08061 15.5588 2.67836 15.125C2.27612 14.6913 2.0542 14.1331 2.0542 13.555C2.0542 12.977 2.27612 12.4187 2.67836 11.985C3.08061 11.5513 3.63555 11.2718 4.23919 11.1989C4.84282 11.1261 5.4537 11.2649 5.95731 11.5893C6.46092 11.9138 6.82269 12.4016 6.97481 12.9613H7.05294C10.074 12.9613 10.6928 11.5511 11.4764 9.76392C12.2873 7.9233 13.199 5.83627 17.0529 5.83627H18.0443L16.6108 4.4751C16.4935 4.36368 16.4276 4.21258 16.4276 4.05502C16.4276 3.89746 16.4935 3.74635 16.6108 3.63494C16.728 3.52353 16.8871 3.46094 17.0529 3.46094C17.2188 3.46094 17.3779 3.52353 17.4951 3.63494L19.9951 6.00994C20.0532 6.06508 20.0993 6.13057 20.1308 6.20265C20.1622 6.27473 20.1784 6.35199 20.1784 6.43002C20.1784 6.50805 20.1622 6.58531 20.1308 6.65739C20.0993 6.72947 20.0532 6.79495 19.9951 6.8501Z" fill="white"/>
</g>
<defs>
<clipPath id="clip0_83_1013">
<rect width="20" height="19" fill="white" transform="translate(0.802734 0.492676)"/>
</clipPath>
</defs>
</svg>
