<svg width="25" height="24" viewBox="0 0 25 24" fill="none" xmlns="http://www.w3.org/2000/svg">
<path d="M21.8516 20.8069C21.8812 20.918 21.8849 21.0344 21.8624 21.1471C21.8398 21.2598 21.7917 21.3658 21.7216 21.457C21.6516 21.5481 21.5615 21.622 21.4584 21.6728C21.3553 21.7236 21.2419 21.75 21.127 21.75H15.127C15.0126 21.7498 14.8998 21.7234 14.7973 21.6729C14.6947 21.6224 14.605 21.5492 14.5351 21.4587C14.4651 21.3682 14.4168 21.263 14.3938 21.151C14.3708 21.039 14.3737 20.9232 14.4023 20.8125C14.6453 19.9088 15.2175 19.1287 16.0063 18.6253C15.5866 18.2058 15.3007 17.6713 15.1847 17.0893C15.0688 16.5073 15.1281 15.904 15.3551 15.3557C15.5821 14.8074 15.9666 14.3388 16.46 14.009C16.9534 13.6793 17.5335 13.5033 18.127 13.5033C18.7204 13.5033 19.3005 13.6793 19.7939 14.009C20.2873 14.3388 20.6718 14.8074 20.8988 15.3557C21.1258 15.904 21.1851 16.5073 21.0692 17.0893C20.9532 17.6713 20.6673 18.2058 20.2476 18.6253C21.0353 19.1273 21.6073 19.9053 21.8516 20.8069ZM21.877 8.25001V11.25C21.877 11.4489 21.7979 11.6397 21.6573 11.7803C21.5166 11.921 21.3259 12 21.127 12C20.928 12 20.7373 11.921 20.5966 11.7803C20.456 11.6397 20.377 11.4489 20.377 11.25V8.25001H3.87695V18.75H11.4295C11.6284 18.75 11.8191 18.829 11.9598 18.9697C12.1004 19.1103 12.1795 19.3011 12.1795 19.5C12.1795 19.6989 12.1004 19.8897 11.9598 20.0303C11.8191 20.171 11.6284 20.25 11.4295 20.25H3.81883C3.43657 20.2495 3.07011 20.0974 2.79982 19.8271C2.52952 19.5568 2.37745 19.1904 2.37695 18.8081V5.25001C2.37695 4.85218 2.53499 4.47065 2.81629 4.18935C3.0976 3.90804 3.47913 3.75001 3.87695 3.75001H8.81664C9.0137 3.74938 9.20891 3.78792 9.39094 3.86341C9.57296 3.93889 9.73817 4.0498 9.87695 4.18969L12.4373 6.75001H20.377C20.7748 6.75001 21.1563 6.90804 21.4376 7.18935C21.7189 7.47065 21.877 7.85218 21.877 8.25001ZM10.3166 6.75001L8.81664 5.25001H3.87695V6.75001H10.3166Z" fill="white"/>
</svg>
