<svg width="25" height="25" viewBox="0 0 25 25" fill="none" xmlns="http://www.w3.org/2000/svg">
<path d="M19.8762 13.3206C19.8762 13.6189 19.7577 13.9051 19.5467 14.1161C19.3357 14.327 19.0496 14.4456 18.7512 14.4456H6.75122C6.45285 14.4456 6.1667 14.327 5.95573 14.1161C5.74475 13.9051 5.62622 13.6189 5.62622 13.3206C5.62622 13.0222 5.74475 12.736 5.95573 12.5251C6.1667 12.3141 6.45285 12.1956 6.75122 12.1956H18.7512C19.0496 12.1956 19.3357 12.3141 19.5467 12.5251C19.7577 12.736 19.8762 13.0222 19.8762 13.3206ZM22.5012 7.69556H3.00122C2.70285 7.69556 2.4167 7.81408 2.20573 8.02506C1.99475 8.23604 1.87622 8.52219 1.87622 8.82056C1.87622 9.11893 1.99475 9.40507 2.20573 9.61605C2.4167 9.82703 2.70285 9.94556 3.00122 9.94556H22.5012C22.7996 9.94556 23.0857 9.82703 23.2967 9.61605C23.5077 9.40507 23.6262 9.11893 23.6262 8.82056C23.6262 8.52219 23.5077 8.23604 23.2967 8.02506C23.0857 7.81408 22.7996 7.69556 22.5012 7.69556ZM15.0012 16.6956H10.5012C10.2029 16.6956 9.9167 16.8141 9.70573 17.0251C9.49475 17.236 9.37622 17.5222 9.37622 17.8206C9.37622 18.1189 9.49475 18.4051 9.70573 18.6161C9.9167 18.827 10.2029 18.9456 10.5012 18.9456H15.0012C15.2996 18.9456 15.5857 18.827 15.7967 18.6161C16.0077 18.4051 16.1262 18.1189 16.1262 17.8206C16.1262 17.5222 16.0077 17.236 15.7967 17.0251C15.5857 16.8141 15.2996 16.6956 15.0012 16.6956Z" fill="white"/>
</svg>
