<svg width="21" height="22" viewBox="0 0 21 22" fill="none" xmlns="http://www.w3.org/2000/svg">
<path d="M18.6875 5.7579L18.681 5.76528L13.125 11.6978V16.2497C13.1253 16.4662 13.0721 16.6794 12.97 16.8703C12.868 17.0613 12.7203 17.224 12.5401 17.344L9.9151 19.0945C9.71728 19.2263 9.48739 19.3019 9.24998 19.3132C9.01257 19.3245 8.77653 19.2712 8.56708 19.1588C8.35763 19.0465 8.18261 18.8793 8.06072 18.6753C7.93882 18.4712 7.87463 18.2379 7.87498 18.0002V11.6978L2.319 5.76528L2.31244 5.7579C2.14161 5.5699 2.029 5.33636 1.98828 5.08562C1.94757 4.83488 1.98049 4.57771 2.08305 4.34531C2.18562 4.11291 2.35342 3.91527 2.5661 3.77636C2.77878 3.63745 3.0272 3.56324 3.28123 3.56274H17.7187C17.973 3.56277 18.2217 3.63663 18.4348 3.77535C18.6478 3.91408 18.816 4.11169 18.9189 4.34419C19.0217 4.57668 19.0549 4.83405 19.0142 5.08501C18.9736 5.33598 18.861 5.56974 18.69 5.7579H18.6875Z" fill="white"/>
</svg>
