<svg width="24" height="24" viewBox="0 0 24 24" fill="none" xmlns="http://www.w3.org/2000/svg">
<path d="M4.93988 9.31022C4.80055 9.17093 4.69003 9.00555 4.61463 8.82354C4.53923 8.64153 4.50042 8.44645 4.50042 8.24944C4.50042 8.05243 4.53923 7.85735 4.61463 7.67533C4.69003 7.49332 4.80055 7.32795 4.93988 7.18866L10.9399 1.18866C11.2212 0.907321 11.6028 0.749268 12.0007 0.749268C12.3985 0.749268 12.7801 0.907321 13.0614 1.18866C13.3428 1.46999 13.5008 1.85157 13.5008 2.24944C13.5008 2.64731 13.3428 3.02888 13.0614 3.31022L7.06144 9.31022C6.92215 9.44954 6.75677 9.56006 6.57476 9.63547C6.39275 9.71087 6.19767 9.74968 6.00066 9.74968C5.80365 9.74968 5.60856 9.71087 5.42655 9.63547C5.24454 9.56006 5.07917 9.44954 4.93988 9.31022ZM22.8114 10.9387C22.6721 10.7993 22.5068 10.6888 22.3248 10.6134C22.1428 10.538 21.9477 10.4992 21.7507 10.4992C21.5536 10.4992 21.3586 10.538 21.1766 10.6134C20.9945 10.6888 20.8292 10.7993 20.6899 10.9387L14.6899 16.9387C14.5506 17.0779 14.44 17.2433 14.3646 17.4253C14.2892 17.6073 14.2504 17.8024 14.2504 17.9994C14.2504 18.1964 14.2892 18.3915 14.3646 18.5735C14.44 18.7556 14.5506 18.9209 14.6899 19.0602C14.8292 19.1995 14.9945 19.3101 15.1766 19.3855C15.3586 19.4609 15.5536 19.4997 15.7507 19.4997C15.9477 19.4997 16.1428 19.4609 16.3248 19.3855C16.5068 19.3101 16.6721 19.1995 16.8114 19.0602L22.8114 13.0602C22.9508 12.9209 23.0613 12.7556 23.1367 12.5735C23.2121 12.3915 23.2509 12.1965 23.2509 11.9994C23.2509 11.8024 23.2121 11.6073 23.1367 11.4253C23.0613 11.2433 22.9508 11.078 22.8114 10.9387ZM19.5199 9.45741L14.5427 4.48022C14.5079 4.44535 14.4665 4.41769 14.421 4.39882C14.3755 4.37995 14.3267 4.37024 14.2774 4.37024C14.2281 4.37024 14.1793 4.37995 14.1338 4.39882C14.0883 4.41769 14.0469 4.44535 14.0121 4.48022L8.23144 10.2608C8.19657 10.2957 8.16891 10.337 8.15004 10.3826C8.13117 10.4281 8.12146 10.4769 8.12146 10.5262C8.12146 10.5754 8.13117 10.6242 8.15004 10.6698C8.16891 10.7153 8.19657 10.7566 8.23144 10.7915L9.65644 12.2193L2.68988 19.1896C2.42045 19.4732 2.27246 19.8508 2.27747 20.242C2.28247 20.6331 2.44008 21.0068 2.71668 21.2834C2.99329 21.56 3.367 21.7176 3.75814 21.7226C4.14928 21.7276 4.52691 21.5796 4.8105 21.3102L11.7808 14.3437L13.2086 15.7715C13.2435 15.8063 13.2848 15.834 13.3303 15.8529C13.3759 15.8717 13.4247 15.8815 13.4739 15.8815C13.5232 15.8815 13.572 15.8717 13.6175 15.8529C13.6631 15.834 13.7044 15.8063 13.7393 15.7715L19.5199 9.99084C19.5552 9.95597 19.5832 9.91443 19.6023 9.86865C19.6214 9.82287 19.6313 9.77374 19.6313 9.72413C19.6313 9.67451 19.6214 9.62539 19.6023 9.5796C19.5832 9.53382 19.5552 9.49228 19.5199 9.45741Z" fill="white"/>
</svg>
