<svg width="25" height="25" viewBox="0 0 25 25" fill="none" xmlns="http://www.w3.org/2000/svg">
<path d="M21.1934 6.92856H17.9046C17.9412 6.89762 17.9787 6.86762 18.0143 6.83481C18.299 6.58185 18.5285 6.27286 18.6884 5.92717C18.8482 5.58147 18.935 5.20652 18.9434 4.82574C18.9557 4.40919 18.8827 3.99451 18.729 3.60717C18.5752 3.21983 18.3439 2.86799 18.0493 2.57327C17.7547 2.27855 17.4029 2.04716 17.0156 1.8933C16.6283 1.73944 16.2137 1.66636 15.7971 1.67855C15.4162 1.68676 15.041 1.77351 14.6952 1.93337C14.3493 2.09324 14.0402 2.32278 13.7871 2.60762C13.4369 3.01346 13.1523 3.47147 12.9434 3.96512C12.7345 3.47147 12.4498 3.01346 12.0996 2.60762C11.8465 2.32278 11.5374 2.09324 11.1915 1.93337C10.8457 1.77351 10.4705 1.68676 10.0896 1.67855C9.67305 1.66636 9.25839 1.73944 8.8711 1.8933C8.4838 2.04716 8.13204 2.27855 7.83741 2.57327C7.54277 2.86799 7.31148 3.21983 7.15774 3.60717C7.004 3.99451 6.93104 4.40919 6.94336 4.82574C6.95169 5.20652 7.0385 5.58147 7.19836 5.92717C7.35822 6.27286 7.58769 6.58185 7.87242 6.83481C7.90805 6.86574 7.94555 6.89574 7.98211 6.92856H4.69336C4.29553 6.92856 3.914 7.08659 3.6327 7.3679C3.35139 7.6492 3.19336 8.03073 3.19336 8.42856V11.4286C3.19336 11.8264 3.35139 12.2079 3.6327 12.4892C3.914 12.7705 4.29553 12.9286 4.69336 12.9286V18.9286C4.69336 19.3264 4.85139 19.7079 5.1327 19.9892C5.414 20.2705 5.79553 20.4286 6.19336 20.4286H11.8184C11.9178 20.4286 12.0132 20.389 12.0835 20.3187C12.1539 20.2484 12.1934 20.153 12.1934 20.0536V11.4286H4.69336V8.42856H12.1934V11.4286H13.6934V8.42856H21.1934V11.4286H13.6934V20.0536C13.6934 20.153 13.7329 20.2484 13.8032 20.3187C13.8735 20.389 13.9689 20.4286 14.0684 20.4286H19.6934C20.0912 20.4286 20.4727 20.2705 20.754 19.9892C21.0353 19.7079 21.1934 19.3264 21.1934 18.9286V12.9286C21.5912 12.9286 21.9727 12.7705 22.254 12.4892C22.5353 12.2079 22.6934 11.8264 22.6934 11.4286V8.42856C22.6934 8.03073 22.5353 7.6492 22.254 7.3679C21.9727 7.08659 21.5912 6.92856 21.1934 6.92856ZM8.86617 5.70981C8.73503 5.59105 8.62986 5.44647 8.55727 5.28514C8.48467 5.12381 8.44621 4.94921 8.4443 4.77231C8.43956 4.56503 8.47623 4.35889 8.55217 4.16596C8.62812 3.97304 8.7418 3.79721 8.88656 3.64878C9.03132 3.50035 9.20425 3.38231 9.39522 3.30156C9.58618 3.22082 9.79134 3.179 9.99867 3.17856H10.0446C10.2215 3.18046 10.3961 3.21892 10.5574 3.29152C10.7188 3.36412 10.8634 3.46929 10.9821 3.60043C11.7687 4.48918 12.0462 5.96293 12.1437 6.87418C11.2287 6.77762 9.75586 6.50012 8.86617 5.70981ZM17.0224 5.70981C16.1327 6.4973 14.6562 6.77481 13.7412 6.8723C13.8527 5.88699 14.1621 4.44418 14.9121 3.60137C15.0309 3.47023 15.1754 3.36506 15.3368 3.29246C15.4981 3.21986 15.6727 3.1814 15.8496 3.17949H15.8955C16.1029 3.18079 16.3079 3.22346 16.4985 3.305C16.6892 3.38654 16.8616 3.50531 17.0058 3.65435C17.1499 3.80339 17.2629 3.97971 17.338 4.17297C17.4132 4.36622 17.449 4.57253 17.4434 4.77981C17.4403 4.95551 17.4012 5.12871 17.3285 5.28869C17.2557 5.44866 17.1509 5.59199 17.0205 5.70981H17.0224Z" fill="white"/>
</svg>
