<svg width="25" height="25" viewBox="0 0 25 25" fill="none" xmlns="http://www.w3.org/2000/svg">
<path d="M22.0625 6.94917C22.0622 6.38814 21.9046 5.83842 21.6076 5.36246C21.3106 4.88649 20.8861 4.50335 20.3822 4.25655C19.8784 4.00975 19.3154 3.90917 18.7573 3.96625C18.1992 4.02333 17.6682 4.23576 17.2248 4.57944C16.7813 4.92312 16.4431 5.38425 16.2486 5.91049C16.0541 6.43672 16.011 7.00696 16.1243 7.55644C16.2376 8.10592 16.5027 8.61262 16.8895 9.019C17.2763 9.42539 17.7693 9.71516 18.3125 9.85542V11.4492C18.3125 11.6481 18.2335 11.8389 18.0928 11.9795C17.9522 12.1202 17.7614 12.1992 17.5625 12.1992H9.31251C9.05695 12.1991 8.80327 12.2429 8.56251 12.3285V9.85542C9.2695 9.67288 9.88565 9.23875 10.2955 8.63442C10.7053 8.03008 10.8806 7.29703 10.7886 6.57267C10.6966 5.84831 10.3436 5.18237 9.79568 4.69968C9.2478 4.21699 8.54269 3.95068 7.81251 3.95068C7.08233 3.95068 6.37721 4.21699 5.82933 4.69968C5.28145 5.18237 4.92842 5.84831 4.83642 6.57267C4.74441 7.29703 4.91975 8.03008 5.32956 8.63442C5.73937 9.23875 6.35551 9.67288 7.06251 9.85542V16.0429C6.35551 16.2255 5.73937 16.6596 5.32956 17.2639C4.91975 17.8683 4.74441 18.6013 4.83642 19.3257C4.92842 20.05 5.28145 20.716 5.82933 21.1987C6.37721 21.6814 7.08233 21.9477 7.81251 21.9477C8.54269 21.9477 9.2478 21.6814 9.79568 21.1987C10.3436 20.716 10.6966 20.05 10.7886 19.3257C10.8806 18.6013 10.7053 17.8683 10.2955 17.2639C9.88565 16.6596 9.2695 16.2255 8.56251 16.0429V14.4492C8.56251 14.2503 8.64153 14.0595 8.78218 13.9188C8.92283 13.7782 9.1136 13.6992 9.31251 13.6992H17.5625C18.1592 13.6992 18.7315 13.4621 19.1535 13.0402C19.5755 12.6182 19.8125 12.0459 19.8125 11.4492V9.85542C20.4562 9.68821 21.0263 9.31221 21.4335 8.78629C21.8407 8.26038 22.0619 7.61427 22.0625 6.94917ZM6.31251 6.94917C6.31251 6.6525 6.40048 6.36249 6.5653 6.11582C6.73012 5.86914 6.96439 5.67688 7.23848 5.56335C7.51257 5.44982 7.81417 5.42012 8.10514 5.47799C8.39611 5.53587 8.66339 5.67873 8.87317 5.88851C9.08295 6.09829 9.22581 6.36557 9.28369 6.65654C9.34156 6.94751 9.31186 7.24911 9.19833 7.5232C9.08479 7.79729 8.89254 8.03155 8.64586 8.19638C8.39919 8.3612 8.10918 8.44917 7.81251 8.44917C7.41468 8.44917 7.03315 8.29114 6.75185 8.00983C6.47054 7.72853 6.31251 7.347 6.31251 6.94917ZM9.31251 18.9492C9.31251 19.2458 9.22453 19.5359 9.05971 19.7825C8.89489 20.0292 8.66062 20.2215 8.38653 20.335C8.11244 20.4485 7.81084 20.4782 7.51987 20.4204C7.2289 20.3625 6.96163 20.2196 6.75185 20.0098C6.54207 19.8001 6.39921 19.5328 6.34133 19.2418C6.28345 18.9508 6.31316 18.6492 6.42669 18.3751C6.54022 18.1011 6.73248 17.8668 6.97915 17.702C7.22583 17.5371 7.51584 17.4492 7.81251 17.4492C8.21033 17.4492 8.59186 17.6072 8.87317 17.8885C9.15447 18.1698 9.31251 18.5513 9.31251 18.9492Z" fill="white"/>
</svg>
