<svg width="40" height="41" viewBox="0 0 40 41" fill="none" xmlns="http://www.w3.org/2000/svg">
<circle cx="20.0343" cy="20.8068" r="19.8468" fill="url(#paint0_linear_50_1097)"/>
<g clip-path="url(#clip0_50_1097)">
<path d="M14.0122 22.663C14.0148 22.7138 14.007 22.7646 13.9893 22.8123C13.9716 22.86 13.9443 22.9036 13.9093 22.9404C13.8742 22.9772 13.832 23.0065 13.7852 23.0266C13.7384 23.0466 13.6881 23.0568 13.6372 23.0568H9.50099C9.33171 23.057 9.16732 23 9.03456 22.895C8.90179 22.79 8.80846 22.6431 8.76974 22.4783C8.74563 22.3656 8.74674 22.2488 8.77299 22.1365C8.79925 22.0242 8.85 21.9191 8.92161 21.8287C9.58331 20.9511 10.4613 20.2602 11.4697 19.8233C11.027 19.4197 10.6874 18.9158 10.4794 18.3538C10.2715 17.7919 10.2012 17.1884 10.2744 16.5937C10.3477 15.999 10.5624 15.4306 10.9005 14.936C11.2387 14.4413 11.6904 14.0349 12.2179 13.7508C12.7454 13.4666 13.3333 13.313 13.9324 13.3028C14.5314 13.2926 15.1242 13.4261 15.6611 13.6921C16.198 13.9581 16.6633 14.3488 17.0181 14.8317C17.3729 15.3145 17.6069 15.8753 17.7004 16.4671C17.7124 16.5467 17.6982 16.628 17.6598 16.6988C17.6213 16.7695 17.5609 16.8258 17.4875 16.859C16.4473 17.3399 15.5663 18.1083 14.9485 19.0736C14.3307 20.0389 14.002 21.1607 14.001 22.3068C14.001 22.4268 14.001 22.5449 14.0122 22.663ZM31.0747 21.8277C30.4146 20.9512 29.5386 20.2607 28.5322 19.8233C28.975 19.4197 29.3146 18.9158 29.5225 18.3538C29.7305 17.7919 29.8008 17.1884 29.7275 16.5937C29.6543 15.999 29.4396 15.4306 29.1014 14.936C28.7633 14.4413 28.3116 14.0349 27.7841 13.7508C27.2566 13.4666 26.6687 13.313 26.0696 13.3028C25.4705 13.2926 24.8777 13.4261 24.3408 13.6921C23.804 13.9581 23.3386 14.3488 22.9838 14.8317C22.629 15.3145 22.3951 15.8753 22.3016 16.4671C22.2895 16.5467 22.3038 16.628 22.3422 16.6988C22.3806 16.7695 22.4411 16.8258 22.5144 16.859C23.5547 17.3399 24.4357 18.1083 25.0534 19.0736C25.6712 20.0389 26 21.1607 26.001 22.3068C26.001 22.4268 26.001 22.5449 25.9897 22.663C25.9872 22.7138 25.995 22.7646 26.0127 22.8123C26.0304 22.86 26.0576 22.9036 26.0927 22.9404C26.1278 22.9772 26.17 23.0065 26.2168 23.0266C26.2635 23.0466 26.3139 23.0568 26.3647 23.0568H30.501C30.6703 23.057 30.8347 23 30.9674 22.895C31.1002 22.79 31.1935 22.6431 31.2322 22.4783C31.2565 22.3653 31.2554 22.2484 31.2289 22.1359C31.2025 22.0233 31.1515 21.9181 31.0794 21.8277H31.0747ZM22.731 25.8758C23.4777 25.3039 24.0265 24.5124 24.3002 23.6125C24.5739 22.7126 24.5587 21.7495 24.2568 20.8587C23.9548 19.9679 23.3813 19.1941 22.6169 18.646C21.8525 18.0979 20.9355 17.8032 19.9949 17.8032C19.0543 17.8032 18.1373 18.0979 17.3729 18.646C16.6085 19.1941 16.035 19.9679 15.733 20.8587C15.4311 21.7495 15.4159 22.7126 15.6896 23.6125C15.9632 24.5124 16.512 25.3039 17.2588 25.8758C15.9337 26.45 14.8272 27.4333 14.1013 28.6818C14.0355 28.7958 14.0008 28.9252 14.0008 29.0568C14.0008 29.1885 14.0355 29.3178 14.1013 29.4319C14.1672 29.5459 14.2619 29.6406 14.3759 29.7064C14.49 29.7722 14.6193 29.8068 14.751 29.8068H25.251C25.3827 29.8068 25.512 29.7722 25.626 29.7064C25.7401 29.6406 25.8348 29.5459 25.9006 29.4319C25.9665 29.3178 26.0011 29.1885 26.0012 29.0568C26.0012 28.9252 25.9665 28.7958 25.9007 28.6818C25.1732 27.4325 24.0647 26.4491 22.7375 25.8758H22.731Z" fill="white"/>
</g>
<defs>
<linearGradient id="paint0_linear_50_1097" x1="0.1875" y1="20.8068" x2="39.8812" y2="20.8068" gradientUnits="userSpaceOnUse">
<stop stop-color="#8CD8A3"/>
<stop offset="1" stop-color="#0F9C8C"/>
</linearGradient>
<clipPath id="clip0_50_1097">
<rect width="24" height="24" fill="white" transform="translate(8.00098 8.80664)"/>
</clipPath>
</defs>
</svg>
