<svg width="41" height="40" viewBox="0 0 41 40" fill="none" xmlns="http://www.w3.org/2000/svg">
<circle cx="20.313" cy="20.0295" r="19.8468" fill="url(#paint0_linear_48_924)"/>
<path d="M26.3775 20.6149L21.4729 25.8115C21.3527 25.9389 21.2097 26.04 21.0519 26.109C20.8942 26.1781 20.725 26.2136 20.5541 26.2137H15.1786L12.7455 28.766C12.6846 28.8299 12.6122 28.8806 12.5325 28.9151C12.4529 28.9497 12.3675 28.9675 12.2812 28.9675C12.195 28.9675 12.1096 28.9497 12.03 28.9151C11.9503 28.8806 11.8779 28.8299 11.817 28.766C11.756 28.7022 11.7076 28.6263 11.6746 28.5429C11.6416 28.4594 11.6246 28.37 11.6246 28.2796C11.6246 28.1893 11.6416 28.0998 11.6746 28.0164C11.7076 27.9329 11.756 27.8571 11.817 27.7932L13.67 25.8527L19.2293 20.0296H26.1445C26.2092 20.0297 26.2724 20.0499 26.3262 20.0875C26.38 20.1251 26.4219 20.1785 26.4468 20.2411C26.4717 20.3036 26.4784 20.3724 26.4661 20.4389C26.4537 20.5054 26.4229 20.5666 26.3775 20.6149ZM26.7762 11.6567C25.7692 10.7886 24.4899 10.3442 23.1874 10.4099C21.8848 10.4757 20.6523 11.047 19.7297 12.0125L18.9422 12.8272C18.8802 12.8909 18.8448 12.9777 18.8437 13.0687V18.4828L23.3555 13.7562C23.4795 13.6327 23.6448 13.5649 23.8159 13.5672C23.987 13.5695 24.1505 13.6417 24.2715 13.7685C24.3925 13.8953 24.4615 14.0665 24.4637 14.2458C24.4659 14.4251 24.4011 14.5982 24.2832 14.7281L20.5426 18.6546H27.7925C27.8528 18.6548 27.9119 18.6375 27.9634 18.6048C28.0149 18.572 28.0569 18.525 28.0846 18.469C28.6469 17.3489 28.8238 16.0601 28.5855 14.8194C28.3472 13.5787 27.7083 12.4618 26.7762 11.6567ZM14.154 23.401L17.5312 19.8629V15.1106C17.5311 15.0428 17.5119 14.9766 17.476 14.9203C17.4401 14.8639 17.3891 14.82 17.3294 14.7939C17.2697 14.7678 17.204 14.7608 17.1405 14.7737C17.0771 14.7866 17.0186 14.8189 16.9726 14.8665L13.9785 17.9671C13.8562 18.0945 13.7593 18.2459 13.6932 18.4128C13.6272 18.5796 13.5934 18.7585 13.5937 18.9391V23.1578C13.5937 23.2258 13.6129 23.2923 13.649 23.3489C13.685 23.4054 13.7363 23.4495 13.7963 23.4756C13.8563 23.5016 13.9223 23.5084 13.986 23.4952C14.0496 23.4819 14.1081 23.4491 14.154 23.401Z" fill="white"/>
<defs>
<linearGradient id="paint0_linear_48_924" x1="0.466187" y1="20.0295" x2="40.1599" y2="20.0295" gradientUnits="userSpaceOnUse">
<stop stop-color="#8CD8A3"/>
<stop offset="1" stop-color="#0F9C8C"/>
</linearGradient>
</defs>
</svg>
