<svg width="22" height="22" viewBox="0 0 22 22" fill="none" xmlns="http://www.w3.org/2000/svg">
<circle cx="11.1052" cy="10.9302" r="10.8115" fill="url(#paint0_linear_46_635)"/>
<g clip-path="url(#clip0_46_635)">
<path d="M11 4.94775C9.72409 4.9492 8.50085 5.4567 7.59865 6.3589C6.69644 7.26111 6.18895 8.48434 6.1875 9.76025C6.1875 13.8782 10.5625 16.9883 10.749 17.1185C10.8225 17.17 10.9102 17.1976 11 17.1976C11.0898 17.1976 11.1775 17.17 11.251 17.1185C11.4375 16.9883 15.8125 13.8782 15.8125 9.76025C15.8111 8.48434 15.3036 7.26111 14.4014 6.3589C13.4991 5.4567 12.2759 4.9492 11 4.94775ZM11 8.01025C11.3461 8.01025 11.6845 8.11289 11.9722 8.30518C12.26 8.49747 12.4843 8.77079 12.6168 9.09056C12.7492 9.41033 12.7839 9.7622 12.7164 10.1017C12.6489 10.4411 12.4822 10.7529 12.2374 10.9977C11.9927 11.2424 11.6809 11.4091 11.3414 11.4766C11.0019 11.5442 10.6501 11.5095 10.3303 11.377C10.0105 11.2446 9.73722 11.0203 9.54493 10.7325C9.35264 10.4447 9.25 10.1064 9.25 9.76025C9.25 9.29613 9.43437 8.85101 9.76256 8.52282C10.0908 8.19463 10.5359 8.01025 11 8.01025Z" fill="white"/>
</g>
<defs>
<linearGradient id="paint0_linear_46_635" x1="0.293701" y1="10.9302" x2="21.9168" y2="10.9302" gradientUnits="userSpaceOnUse">
<stop stop-color="#8CD8A3"/>
<stop offset="1" stop-color="#0F9C8C"/>
</linearGradient>
<clipPath id="clip0_46_635">
<rect width="14" height="14" fill="white" transform="translate(4 4.07275)"/>
</clipPath>
</defs>
</svg>
