<svg width="25" height="25" viewBox="0 0 25 25" fill="none" xmlns="http://www.w3.org/2000/svg">
<g clip-path="url(#clip0_50_1089)">
<path d="M24.4036 10.9249L22.0111 6.13805C21.9229 5.96187 21.801 5.80477 21.6521 5.67572C21.5032 5.54668 21.3304 5.44823 21.1435 5.38598C20.9566 5.32374 20.7593 5.29892 20.5628 5.31295C20.3662 5.32698 20.1744 5.37958 19.9983 5.46774L17.6667 6.63305L12.7551 5.33368C12.6291 5.30088 12.4968 5.30088 12.3708 5.33368L7.4592 6.63305L5.12763 5.46774C4.95146 5.37958 4.75965 5.32698 4.56314 5.31295C4.36664 5.29892 4.1693 5.32374 3.98239 5.38598C3.79547 5.44823 3.62266 5.54668 3.4738 5.67572C3.32494 5.80477 3.20296 5.96187 3.11482 6.13805L0.722322 10.924C0.634156 11.1002 0.581557 11.292 0.567529 11.4885C0.5535 11.685 0.578318 11.8823 0.640563 12.0692C0.702809 12.2562 0.801264 12.429 0.930305 12.5778C1.05935 12.7267 1.21645 12.8487 1.39263 12.9368L3.92388 14.2034L9.12607 17.9187C9.20273 17.9732 9.28889 18.013 9.38014 18.0359L15.3801 19.5359C15.5058 19.5674 15.6375 19.5658 15.7623 19.5313C15.8872 19.4968 16.001 19.4305 16.0926 19.339L19.8426 15.589L21.2564 14.1752L23.7333 12.9368C24.0888 12.7588 24.3592 12.4469 24.4849 12.0696C24.6106 11.6924 24.5813 11.2806 24.4036 10.9249ZM19.2576 14.0534L16.0317 11.4696C15.8872 11.3539 15.705 11.2957 15.5201 11.3062C15.3353 11.3168 15.1608 11.3954 15.0304 11.5268C13.3608 13.2087 11.4998 12.9959 10.3129 12.2459L14.3667 8.30837H17.3489L19.8998 13.4093L19.2576 14.0534ZM15.3323 17.9777L9.88357 16.6156L5.27107 13.3212L7.89607 8.07118L12.5629 6.83462L13.4817 7.07743L9.26295 11.1724L9.25545 11.1809C9.09664 11.3397 8.97552 11.5321 8.90103 11.744C8.82653 11.9559 8.80056 12.1818 8.82504 12.405C8.84951 12.6282 8.92381 12.8432 9.04244 13.0339C9.16107 13.2246 9.32101 13.3862 9.51045 13.5068C11.4379 14.7377 13.7639 14.5381 15.5958 13.0381L18.1879 15.1202L15.3323 17.9777ZM12.9211 21.2402C12.8806 21.4023 12.7871 21.5463 12.6554 21.6492C12.5238 21.7521 12.3616 21.8081 12.1945 21.8084C12.1329 21.8083 12.0715 21.8007 12.0117 21.7859L8.10139 20.8081C8.01001 20.7855 7.92378 20.7457 7.84732 20.6909L5.37701 18.9265C5.22512 18.8072 5.12508 18.634 5.09773 18.4428C5.07038 18.2516 5.11783 18.0573 5.23019 17.9002C5.34255 17.7432 5.51117 17.6355 5.70093 17.5996C5.89069 17.5638 6.08696 17.6025 6.24888 17.7077L8.60295 19.3896L12.3754 20.3309C12.5684 20.3791 12.7342 20.502 12.8366 20.6726C12.9389 20.8431 12.9693 21.0473 12.9211 21.2402Z" fill="white"/>
</g>
<defs>
<clipPath id="clip0_50_1089">
<rect width="24" height="24" fill="white" transform="translate(0.562988 0.808594)"/>
</clipPath>
</defs>
</svg>
