<svg width="24" height="25" viewBox="0 0 24 25" fill="none" xmlns="http://www.w3.org/2000/svg">
<path d="M20.25 4.01782H3.75C3.35218 4.01782 2.97064 4.17586 2.68934 4.45716C2.40804 4.73847 2.25 5.12 2.25 5.51782V19.0178C2.25 19.4156 2.40804 19.7972 2.68934 20.0785C2.97064 20.3598 3.35218 20.5178 3.75 20.5178H20.25C20.6478 20.5178 21.0294 20.3598 21.3107 20.0785C21.592 19.7972 21.75 19.4156 21.75 19.0178V5.51782C21.75 5.12 21.592 4.73847 21.3107 4.45716C21.0294 4.17586 20.6478 4.01782 20.25 4.01782ZM14.625 8.51782C14.8475 8.51782 15.065 8.5838 15.25 8.70742C15.435 8.83104 15.5792 9.00674 15.6644 9.2123C15.7495 9.41787 15.7718 9.64407 15.7284 9.8623C15.685 10.0805 15.5778 10.281 15.4205 10.4383C15.2632 10.5957 15.0627 10.7028 14.8445 10.7462C14.6262 10.7896 14.4 10.7673 14.1945 10.6822C13.9889 10.597 13.8132 10.4528 13.6896 10.2678C13.566 10.0828 13.5 9.86533 13.5 9.64282C13.5 9.34445 13.6185 9.05831 13.8295 8.84733C14.0405 8.63635 14.3266 8.51782 14.625 8.51782ZM20.25 19.0178H3.75V15.3325L8.09437 10.9872C8.16403 10.9175 8.24675 10.8621 8.33779 10.8244C8.42884 10.7867 8.52644 10.7672 8.625 10.7672C8.72356 10.7672 8.82116 10.7867 8.91221 10.8244C9.00325 10.8621 9.08597 10.9175 9.15563 10.9872L15.4688 17.2984C15.6095 17.4392 15.8004 17.5182 15.9994 17.5182C16.1984 17.5182 16.3893 17.4392 16.53 17.2984C16.6707 17.1577 16.7498 16.9668 16.7498 16.7678C16.7498 16.5688 16.6707 16.3779 16.53 16.2372L14.8744 14.5825L16.2188 13.2372C16.3594 13.0967 16.5501 13.0177 16.7489 13.0177C16.9477 13.0177 17.1384 13.0967 17.2791 13.2372L20.25 16.2119V19.0178Z" fill="white"/>
</svg>
