<svg width="25" height="25" viewBox="0 0 25 25" fill="none" xmlns="http://www.w3.org/2000/svg">
<path d="M3.03467 6.39673C3.03467 6.19782 3.11369 6.00705 3.25434 5.8664C3.39499 5.72575 3.58576 5.64673 3.78467 5.64673H20.2847C20.4836 5.64673 20.6743 5.72575 20.815 5.8664C20.9557 6.00705 21.0347 6.19782 21.0347 6.39673C21.0347 6.59564 20.9557 6.78641 20.815 6.92706C20.6743 7.06771 20.4836 7.14673 20.2847 7.14673H3.78467C3.58576 7.14673 3.39499 7.06771 3.25434 6.92706C3.11369 6.78641 3.03467 6.59564 3.03467 6.39673ZM3.78467 13.1467H10.5347C10.7336 13.1467 10.9243 13.0677 11.065 12.9271C11.2056 12.7864 11.2847 12.5956 11.2847 12.3967C11.2847 12.1978 11.2056 12.0071 11.065 11.8664C10.9243 11.7257 10.7336 11.6467 10.5347 11.6467H3.78467C3.58576 11.6467 3.39499 11.7257 3.25434 11.8664C3.11369 12.0071 3.03467 12.1978 3.03467 12.3967C3.03467 12.5956 3.11369 12.7864 3.25434 12.9271C3.39499 13.0677 3.58576 13.1467 3.78467 13.1467ZM12.0347 17.6467H3.78467C3.58576 17.6467 3.39499 17.7257 3.25434 17.8664C3.11369 18.0071 3.03467 18.1978 3.03467 18.3967C3.03467 18.5956 3.11369 18.7864 3.25434 18.9271C3.39499 19.0677 3.58576 19.1467 3.78467 19.1467H12.0347C12.2336 19.1467 12.4243 19.0677 12.565 18.9271C12.7057 18.7864 12.7847 18.5956 12.7847 18.3967C12.7847 18.1978 12.7057 18.0071 12.565 17.8664C12.4243 17.7257 12.2336 17.6467 12.0347 17.6467ZM22.3153 17.8661L20.4122 15.9592C20.9238 15.1838 21.1293 14.246 20.989 13.3276C20.8487 12.4092 20.3724 11.5756 19.6525 10.9884C18.9327 10.4011 18.0204 10.1019 17.0926 10.1489C16.1647 10.1958 15.2873 10.5855 14.6304 11.2424C13.9735 11.8994 13.5838 12.7768 13.5368 13.7046C13.4899 14.6325 13.789 15.5447 14.3763 16.2646C14.9636 16.9845 15.7972 17.4607 16.7155 17.6011C17.6339 17.7414 18.5717 17.5359 19.3472 17.0242L21.2503 18.9274C21.391 19.0681 21.5819 19.1471 21.7809 19.1471C21.9799 19.1471 22.1708 19.0681 22.3115 18.9274C22.4523 18.7866 22.5313 18.5958 22.5313 18.3967C22.5313 18.1977 22.4523 18.0068 22.3115 17.8661H22.3153Z" fill="white"/>
</svg>
