<svg width="25" height="25" viewBox="0 0 25 25" fill="none" xmlns="http://www.w3.org/2000/svg">
<path d="M22.109 21.1434L17.6569 16.6893C18.9918 14.9498 19.615 12.7676 19.4001 10.5854C19.1853 8.40322 18.1484 6.38448 16.4998 4.93869C14.8513 3.4929 12.7145 2.72831 10.523 2.80004C8.3314 2.87176 6.24918 3.77442 4.69869 5.32491C3.1482 6.8754 2.24554 8.95762 2.17382 11.1492C2.10209 13.3407 2.86668 15.4775 4.31247 17.1261C5.75826 18.7746 7.777 19.8115 9.95917 20.0264C12.1413 20.2412 14.3235 19.618 16.0631 18.2831L20.519 22.7399C20.6237 22.8446 20.7479 22.9276 20.8847 22.9842C21.0214 23.0409 21.1679 23.07 21.3159 23.07C21.4639 23.07 21.6105 23.0409 21.7472 22.9842C21.8839 22.9276 22.0081 22.8446 22.1128 22.7399C22.2174 22.6353 22.3004 22.5111 22.3571 22.3743C22.4137 22.2376 22.4429 22.0911 22.4429 21.9431C22.4429 21.7951 22.4137 21.6485 22.3571 21.5118C22.3004 21.3751 22.2174 21.2508 22.1128 21.1462L22.109 21.1434ZM4.4381 11.4393C4.4381 10.1785 4.81199 8.94593 5.51249 7.89756C6.21298 6.8492 7.20862 6.0321 8.3735 5.54959C9.53838 5.06708 10.8202 4.94084 12.0568 5.18682C13.2934 5.4328 14.4293 6.03996 15.3209 6.93152C16.2125 7.82308 16.8196 8.959 17.0656 10.1956C17.3116 11.4323 17.1853 12.7141 16.7028 13.8789C16.2203 15.0438 15.4032 16.0394 14.3549 16.7399C13.3065 17.4404 12.074 17.8143 10.8131 17.8143C9.12288 17.8126 7.50239 17.1404 6.30722 15.9452C5.11205 14.75 4.43984 13.1295 4.4381 11.4393Z" fill="white"/>
</svg>
