<svg width="25" height="25" viewBox="0 0 25 25" fill="none" xmlns="http://www.w3.org/2000/svg">
<path d="M10.3467 14.4286C10.3467 14.6275 10.2677 14.8183 10.127 14.9589C9.98636 15.0996 9.79559 15.1786 9.59668 15.1786H5.84668C5.64777 15.1786 5.457 15.0996 5.31635 14.9589C5.1757 14.8183 5.09668 14.6275 5.09668 14.4286C5.09668 14.2297 5.1757 14.0389 5.31635 13.8983C5.457 13.7576 5.64777 13.6786 5.84668 13.6786H9.59668C9.79559 13.6786 9.98636 13.7576 10.127 13.8983C10.2677 14.0389 10.3467 14.2297 10.3467 14.4286ZM16.3467 3.17859H18.5967C18.7956 3.17859 18.9864 3.09957 19.127 2.95892C19.2677 2.81827 19.3467 2.6275 19.3467 2.42859C19.3467 2.22968 19.2677 2.03891 19.127 1.89826C18.9864 1.75761 18.7956 1.67859 18.5967 1.67859H15.5967C15.3978 1.67859 15.207 1.75761 15.0663 1.89826C14.9257 2.03891 14.8467 2.22968 14.8467 2.42859V5.42859H16.3467V3.17859ZM23.0967 11.0536V16.6786C23.0967 17.0764 22.9386 17.4579 22.6573 17.7392C22.376 18.0206 21.9945 18.1786 21.5967 18.1786H13.3467V21.1786C13.3467 21.3775 13.2677 21.5683 13.127 21.7089C12.9864 21.8496 12.7956 21.9286 12.5967 21.9286C12.3978 21.9286 12.207 21.8496 12.0663 21.7089C11.9257 21.5683 11.8467 21.3775 11.8467 21.1786V18.1786H3.59668C3.19885 18.1786 2.81732 18.0206 2.53602 17.7392C2.25471 17.4579 2.09668 17.0764 2.09668 16.6786V11.0536C2.09842 9.56228 2.69161 8.13255 3.74612 7.07803C4.80064 6.02352 6.23037 5.43033 7.72168 5.42859H14.8467V13.6786C14.8467 13.8775 14.9257 14.0683 15.0663 14.2089C15.207 14.3496 15.3978 14.4286 15.5967 14.4286C15.7956 14.4286 15.9864 14.3496 16.127 14.2089C16.2677 14.0683 16.3467 13.8775 16.3467 13.6786V5.42859H17.4717C18.963 5.43033 20.3927 6.02352 21.4472 7.07803C22.5018 8.13255 23.0949 9.56228 23.0967 11.0536ZM11.8467 11.0536C11.8467 9.95957 11.4121 8.91036 10.6385 8.13677C9.86491 7.36319 8.8157 6.92859 7.72168 6.92859C6.62766 6.92859 5.57845 7.36319 4.80486 8.13677C4.03128 8.91036 3.59668 9.95957 3.59668 11.0536V16.6786H11.8467V11.0536Z" fill="white"/>
</svg>
