<svg width="25" height="25" viewBox="0 0 25 25" fill="none" xmlns="http://www.w3.org/2000/svg">
<path d="M8.5625 6.39251C8.56247 5.68295 8.76375 4.98794 9.14296 4.38821C9.52218 3.78848 10.0638 3.30864 10.7048 3.00444C11.3459 2.70024 12.0601 2.58415 12.7644 2.66967C13.4688 2.75518 14.1345 3.03879 14.6841 3.48754C15.2338 3.9363 15.6448 4.53178 15.8695 5.20483C16.0942 5.87787 16.1233 6.60086 15.9535 7.2898C15.7837 7.97874 15.4219 8.60537 14.9102 9.09689C14.3984 9.58841 13.7577 9.92466 13.0625 10.0666V16.8925C13.0625 17.0914 12.9835 17.2822 12.8428 17.4228C12.7022 17.5635 12.5114 17.6425 12.3125 17.6425C12.1136 17.6425 11.9228 17.5635 11.7822 17.4228C11.6415 17.2822 11.5625 17.0914 11.5625 16.8925V10.0666C10.716 9.89289 9.95539 9.43256 9.40887 8.76325C8.86235 8.09394 8.56342 7.2566 8.5625 6.39251ZM20.75 14.1353C19.6006 13.4847 18.02 12.985 16.1778 12.6897C16.0804 12.6743 15.9808 12.6783 15.8849 12.7013C15.789 12.7244 15.6986 12.7661 15.6188 12.8242C15.539 12.8822 15.4714 12.9554 15.4199 13.0395C15.3684 13.1236 15.334 13.2171 15.3186 13.3145C15.3032 13.412 15.3072 13.5115 15.3302 13.6074C15.3533 13.7033 15.395 13.7938 15.4531 13.8736C15.5111 13.9533 15.5843 14.0209 15.6684 14.0724C15.7525 14.1239 15.846 14.1584 15.9434 14.1738C17.5878 14.4381 19.0372 14.8891 20.0141 15.4441C20.8438 15.9081 21.3125 16.4369 21.3125 16.8925C21.3125 18.145 17.8888 19.8925 12.3125 19.8925C6.73625 19.8925 3.3125 18.145 3.3125 16.8925C3.3125 16.4369 3.78125 15.9081 4.61094 15.4403C5.59156 14.8853 7.03719 14.4344 8.68156 14.17C8.78108 14.157 8.87697 14.1242 8.96356 14.0734C9.05015 14.0227 9.12568 13.9551 9.18567 13.8746C9.24567 13.7942 9.2889 13.7025 9.31281 13.605C9.33673 13.5076 9.34084 13.4063 9.3249 13.3072C9.30896 13.2081 9.2733 13.1132 9.22002 13.0282C9.16675 12.9431 9.09694 12.8696 9.01475 12.8121C8.93255 12.7545 8.83963 12.714 8.7415 12.693C8.64336 12.6719 8.54201 12.6708 8.44344 12.6897C6.60125 12.985 5.02062 13.4847 3.87125 14.1353C2.16969 15.0991 1.8125 16.1669 1.8125 16.8925C1.8125 19.8156 7.22281 21.3925 12.3125 21.3925C17.4022 21.3925 22.8125 19.8156 22.8125 16.8925C22.8125 16.1669 22.4553 15.0991 20.75 14.1353Z" fill="white"/>
</svg>
