<svg width="14" height="15" viewBox="0 0 14 15" fill="none" xmlns="http://www.w3.org/2000/svg">
<path d="M7 1.18359C5.72409 1.18504 4.50085 1.69254 3.59865 2.59474C2.69644 3.49695 2.18895 4.72018 2.1875 5.99609C2.1875 10.1141 6.5625 13.2241 6.74898 13.3543C6.82255 13.4058 6.91018 13.4335 7 13.4335C7.08982 13.4335 7.17745 13.4058 7.25102 13.3543C7.4375 13.2241 11.8125 10.1141 11.8125 5.99609C11.8111 4.72018 11.3036 3.49695 10.4014 2.59474C9.49915 1.69254 8.27591 1.18504 7 1.18359ZM7 4.24609C7.34612 4.24609 7.68446 4.34873 7.97225 4.54102C8.26003 4.73331 8.48434 5.00663 8.61679 5.3264C8.74924 5.64617 8.7839 5.99804 8.71637 6.3375C8.64885 6.67697 8.48218 6.98879 8.23744 7.23353C7.99269 7.47827 7.68087 7.64494 7.34141 7.71247C7.00194 7.77999 6.65007 7.74534 6.3303 7.61288C6.01053 7.48043 5.73722 7.25613 5.54493 6.96834C5.35264 6.68056 5.25 6.34221 5.25 5.99609C5.25 5.53197 5.43437 5.08685 5.76256 4.75866C6.09075 4.43047 6.53587 4.24609 7 4.24609Z" fill="white"/>
</svg>
