<svg width="21" height="22" viewBox="0 0 21 22" fill="none" xmlns="http://www.w3.org/2000/svg">
<path d="M14.875 20.1665L14.6125 18.7915C14.4375 18.7151 14.2736 18.6351 14.1207 18.5513C13.9679 18.4676 13.811 18.3643 13.65 18.2415L12.3812 18.654L11.5062 17.0957L12.5125 16.179C12.4833 15.9957 12.4687 15.7971 12.4687 15.5832C12.4687 15.3693 12.4833 15.1707 12.5125 14.9873L11.5062 14.0707L12.3812 12.5123L13.65 12.9248C13.8104 12.8026 13.9673 12.6996 14.1207 12.6159C14.2742 12.5322 14.4381 12.4518 14.6125 12.3748L14.875 10.9998H16.625L16.8875 12.3748C17.0625 12.4512 17.2267 12.5316 17.3801 12.6159C17.5335 12.7003 17.6902 12.8032 17.85 12.9248L19.1187 12.5123L19.9937 14.0707L18.9875 14.9873C19.0167 15.1707 19.0312 15.3693 19.0312 15.5832C19.0312 15.7971 19.0167 15.9957 18.9875 16.179L19.9937 17.0957L19.1187 18.654L17.85 18.2415C17.6896 18.3637 17.533 18.467 17.3801 18.5513C17.2273 18.6357 17.0631 18.7157 16.8875 18.7915L16.625 20.1665H14.875ZM15.75 17.4165C16.2312 17.4165 16.6434 17.2371 16.9864 16.8784C17.3294 16.5197 17.5006 16.0879 17.5 15.5832C17.4994 15.0784 17.3282 14.6469 16.9864 14.2888C16.6445 13.9307 16.2324 13.7511 15.75 13.7498C15.2676 13.7486 14.8557 13.9283 14.5145 14.2888C14.1732 14.6494 14.0017 15.0808 14 15.5832C13.9982 16.0855 14.1697 16.5173 14.5145 16.8784C14.8592 17.2396 15.2711 17.4189 15.75 17.4165ZM3.5 18.3332C3.01875 18.3332 2.60692 18.1538 2.2645 17.7951C1.92208 17.4364 1.75058 17.0046 1.75 16.4998V5.49984C1.75 4.99567 1.9215 4.56423 2.2645 4.2055C2.6075 3.84678 3.01933 3.66712 3.5 3.6665H8.75L10.5 5.49984H17.5C17.9812 5.49984 18.3934 5.6795 18.7364 6.03884C19.0794 6.39817 19.2506 6.82962 19.25 7.33317V10.3353C18.7396 9.95331 18.1854 9.66303 17.5875 9.46442C16.9896 9.26581 16.3698 9.1665 15.7281 9.1665C14.0073 9.1665 12.56 9.79686 11.3864 11.0576C10.2127 12.3183 9.62558 13.8192 9.625 15.5603C9.625 16.0491 9.67604 16.5228 9.77812 16.9811C9.88021 17.4394 10.0333 17.8901 10.2375 18.3332H3.5Z" fill="white"/>
</svg>
