<svg width="25" height="25" viewBox="0 0 25 25" fill="none" xmlns="http://www.w3.org/2000/svg">
<path d="M16.6899 21.0596C16.6899 21.2585 16.6109 21.4492 16.4703 21.5899C16.3296 21.7306 16.1389 21.8096 15.9399 21.8096H9.93994C9.74103 21.8096 9.55026 21.7306 9.40961 21.5899C9.26896 21.4492 9.18994 21.2585 9.18994 21.0596C9.18994 20.8607 9.26896 20.6699 9.40961 20.5292C9.55026 20.3886 9.74103 20.3096 9.93994 20.3096H15.9399C16.1389 20.3096 16.3296 20.3886 16.4703 20.5292C16.6109 20.6699 16.6899 20.8607 16.6899 21.0596ZM22.6899 6.05957V16.5596C22.6899 17.1563 22.4529 17.7286 22.0309 18.1506C21.609 18.5725 21.0367 18.8096 20.4399 18.8096H5.43994C4.8432 18.8096 4.27091 18.5725 3.84895 18.1506C3.42699 17.7286 3.18994 17.1563 3.18994 16.5596V6.05957C3.18994 5.46283 3.42699 4.89054 3.84895 4.46858C4.27091 4.04662 4.8432 3.80957 5.43994 3.80957H20.4399C21.0367 3.80957 21.609 4.04662 22.0309 4.46858C22.4529 4.89054 22.6899 5.46283 22.6899 6.05957ZM15.7206 10.0289L13.4706 7.77894C13.4009 7.70921 13.3182 7.65389 13.2271 7.61615C13.1361 7.57841 13.0385 7.55898 12.9399 7.55898C12.8414 7.55898 12.7438 7.57841 12.6527 7.61615C12.5617 7.65389 12.479 7.70921 12.4093 7.77894L10.1593 10.0289C10.0186 10.1697 9.93952 10.3605 9.93952 10.5596C9.93952 10.7586 10.0186 10.9495 10.1593 11.0902C10.3 11.2309 10.4909 11.31 10.6899 11.31C10.889 11.31 11.0798 11.2309 11.2206 11.0902L12.1899 10.1199V14.3096C12.1899 14.5085 12.269 14.6992 12.4096 14.8399C12.5503 14.9806 12.741 15.0596 12.9399 15.0596C13.1389 15.0596 13.3296 14.9806 13.4703 14.8399C13.6109 14.6992 13.6899 14.5085 13.6899 14.3096V10.1199L14.6593 11.0902C14.729 11.1599 14.8117 11.2152 14.9028 11.2529C14.9938 11.2906 15.0914 11.31 15.1899 11.31C15.2885 11.31 15.3861 11.2906 15.4771 11.2529C15.5682 11.2152 15.6509 11.1599 15.7206 11.0902C15.7902 11.0205 15.8455 10.9378 15.8832 10.8467C15.9209 10.7557 15.9404 10.6581 15.9404 10.5596C15.9404 10.461 15.9209 10.3634 15.8832 10.2724C15.8455 10.1814 15.7902 10.0986 15.7206 10.0289Z" fill="white"/>
</svg>
