<svg width="11" height="11" viewBox="0 0 11 11" fill="none" xmlns="http://www.w3.org/2000/svg">
<path d="M9.16329 7.35656C9.09363 7.88587 8.83369 8.37173 8.432 8.72338C8.03031 9.07504 7.51434 9.26846 6.98047 9.2675C3.87891 9.2675 1.35547 6.74406 1.35547 3.6425C1.35452 3.10863 1.54793 2.59266 1.89959 2.19097C2.25125 1.78928 2.7371 1.52934 3.26641 1.45969C3.40026 1.44334 3.5358 1.47073 3.65281 1.53775C3.76982 1.60477 3.86201 1.70784 3.91563 1.83156L4.74063 3.67336V3.67805C4.78168 3.77275 4.79863 3.87616 4.78997 3.97901C4.78132 4.08187 4.74732 4.18098 4.69102 4.2675C4.68399 4.27805 4.67657 4.28781 4.66875 4.29758L3.85547 5.26164C4.14805 5.85617 4.76993 6.47258 5.37227 6.76594L6.32305 5.95695C6.33239 5.9491 6.34217 5.9418 6.35235 5.93508C6.43879 5.87742 6.53824 5.84223 6.64171 5.83268C6.74518 5.82313 6.84939 5.83953 6.94493 5.88039L6.95 5.88273L8.79024 6.70734C8.91418 6.76077 9.0175 6.85288 9.08474 6.96991C9.15199 7.08693 9.17954 7.22258 9.16329 7.35656Z" fill="white"/>
</svg>
