<svg width="25" height="25" viewBox="0 0 25 25" fill="none" xmlns="http://www.w3.org/2000/svg">
<path d="M15.8549 21.2744H19.813C20.2108 21.2744 20.5923 21.1164 20.8736 20.8351C21.155 20.5538 21.313 20.1722 21.313 19.7744V16.2447C21.3123 16.1217 21.2815 16.0008 21.2231 15.8925C21.1647 15.7843 21.0805 15.6921 20.9781 15.624C20.8757 15.5559 20.7581 15.5141 20.6356 15.5022C20.5132 15.4902 20.3898 15.5086 20.2761 15.5557C20.0103 15.6654 19.7255 15.7218 19.438 15.7216C18.1977 15.7216 17.188 14.681 17.188 13.4032C17.188 12.1254 18.1977 11.0847 19.438 11.0847C19.7255 11.0845 20.0103 11.1409 20.2761 11.2507C20.3903 11.298 20.5145 11.3163 20.6375 11.304C20.7605 11.2917 20.8786 11.2492 20.9812 11.1803C21.0839 11.1113 21.1678 11.0181 21.2257 10.9088C21.2836 10.7996 21.3136 10.6777 21.313 10.5541V7.02441C21.313 6.62659 21.155 6.24506 20.8736 5.96375C20.5923 5.68245 20.2108 5.52441 19.813 5.52441H16.4174C16.4313 5.3999 16.4382 5.2747 16.438 5.14941C16.438 4.25431 16.0824 3.39586 15.4495 2.76293C14.8165 2.12999 13.9581 1.77441 13.063 1.77441C12.1679 1.77441 11.3094 2.12999 10.6765 2.76293C10.0436 3.39586 9.68799 4.25431 9.68799 5.14941C9.68777 5.2747 9.69466 5.3999 9.70861 5.52441H6.31299C5.91516 5.52441 5.53363 5.68245 5.25233 5.96375C4.97102 6.24506 4.81299 6.62659 4.81299 7.02441V10.045C4.68848 10.0311 4.56328 10.0242 4.43799 10.0244C3.54288 10.0244 2.68444 10.38 2.0515 11.0129C1.41857 11.6459 1.06299 12.5043 1.06299 13.3994C1.06299 14.2945 1.41857 15.153 2.0515 15.7859C2.68444 16.4188 3.54288 16.7744 4.43799 16.7744C4.56328 16.7746 4.68848 16.7677 4.81299 16.7538V19.7744C4.81299 20.1722 4.97102 20.5538 5.25233 20.8351C5.53363 21.1164 5.91516 21.2744 6.31299 21.2744H10.2711" fill="white"/>
</svg>
