<svg width="25" height="25" viewBox="0 0 25 25" fill="none" xmlns="http://www.w3.org/2000/svg">
<path d="M9.31299 9.85925C9.16465 9.85925 9.01965 9.81527 8.89631 9.73285C8.77297 9.65044 8.67684 9.53331 8.62008 9.39627C8.56331 9.25922 8.54846 9.10842 8.5774 8.96294C8.60634 8.81745 8.67777 8.68381 8.78266 8.57892C8.88755 8.47403 9.02118 8.4026 9.16667 8.37366C9.31216 8.34473 9.46296 8.35958 9.6 8.41634C9.73705 8.47311 9.85418 8.56924 9.93659 8.69257C10.019 8.81591 10.063 8.96092 10.063 9.10925C10.063 9.30817 9.98397 9.49893 9.84332 9.63958C9.70267 9.78024 9.5119 9.85925 9.31299 9.85925ZM15.313 14.3593C15.1647 14.3593 15.0196 14.4032 14.8963 14.4857C14.773 14.5681 14.6768 14.6852 14.6201 14.8222C14.5633 14.9593 14.5485 15.1101 14.5774 15.2556C14.6063 15.4011 14.6778 15.5347 14.7827 15.6396C14.8875 15.7445 15.0212 15.8159 15.1667 15.8448C15.3122 15.8738 15.463 15.8589 15.6 15.8022C15.737 15.7454 15.8542 15.6493 15.9366 15.5259C16.019 15.4026 16.063 15.2576 16.063 15.1093C16.063 14.9103 15.984 14.7196 15.8433 14.5789C15.7027 14.4383 15.5119 14.3593 15.313 14.3593ZM22.813 12.1093C22.813 13.088 22.1089 13.8221 21.4874 14.4699C21.1339 14.8393 20.7683 15.2199 20.6305 15.5546C20.503 15.8611 20.4955 16.3693 20.488 16.8614C20.4739 17.7764 20.4589 18.8133 19.738 19.5343C19.017 20.2552 17.9802 20.2702 17.0652 20.2843C16.573 20.2918 16.0649 20.2993 15.7583 20.4268C15.4236 20.5646 15.043 20.9302 14.6736 21.2836C14.0258 21.9052 13.2917 22.6093 12.313 22.6093C11.3342 22.6093 10.6002 21.9052 9.95236 21.2836C9.58299 20.9302 9.20236 20.5646 8.86768 20.4268C8.56111 20.2993 8.05299 20.2918 7.5608 20.2843C6.6458 20.2702 5.60893 20.2552 4.88799 19.5343C4.16705 18.8133 4.15205 17.7764 4.13799 16.8614C4.13049 16.3693 4.12299 15.8611 3.99549 15.5546C3.85768 15.2199 3.49205 14.8393 3.13861 14.4699C2.51705 13.8221 1.81299 13.088 1.81299 12.1093C1.81299 11.1305 2.51705 10.3964 3.13861 9.74863C3.49205 9.37925 3.85768 8.99863 3.99549 8.66394C4.12299 8.35738 4.13049 7.84925 4.13799 7.35707C4.15205 6.44207 4.16705 5.40519 4.88799 4.68425C5.60893 3.96332 6.6458 3.94832 7.5608 3.93425C8.05299 3.92675 8.56111 3.91925 8.86768 3.79175C9.20236 3.65394 9.58299 3.28832 9.95236 2.93488C10.6002 2.31332 11.3342 1.60925 12.313 1.60925C13.2917 1.60925 14.0258 2.31332 14.6736 2.93488C15.043 3.28832 15.4236 3.65394 15.7583 3.79175C16.0649 3.91925 16.573 3.92675 17.0652 3.93425C17.9802 3.94832 19.017 3.96332 19.738 4.68425C20.4589 5.40519 20.4739 6.44207 20.488 7.35707C20.4955 7.84925 20.503 8.35738 20.6305 8.66394C20.7683 8.99863 21.1339 9.37925 21.4874 9.74863C22.1089 10.3964 22.813 11.1305 22.813 12.1093ZM9.31299 11.3593C9.758 11.3593 10.193 11.2273 10.563 10.9801C10.933 10.7328 11.2214 10.3814 11.3917 9.97029C11.562 9.55916 11.6066 9.10676 11.5198 8.6703C11.4329 8.23384 11.2186 7.83293 10.904 7.51826C10.5893 7.20359 10.1884 6.9893 9.75194 6.90249C9.31548 6.81567 8.86308 6.86023 8.45195 7.03052C8.04082 7.20082 7.68941 7.48921 7.44218 7.85922C7.19495 8.22923 7.06299 8.66425 7.06299 9.10925C7.06299 9.70599 7.30004 10.2783 7.722 10.7002C8.14395 11.1222 8.71625 11.3593 9.31299 11.3593ZM16.5936 8.88988C16.6633 8.8202 16.7186 8.73747 16.7563 8.64643C16.794 8.55538 16.8134 8.4578 16.8134 8.35925C16.8134 8.26071 16.794 8.16313 16.7563 8.07208C16.7186 7.98104 16.6633 7.89831 16.5936 7.82863C16.5239 7.75894 16.4412 7.70367 16.3502 7.66596C16.2591 7.62825 16.1615 7.60884 16.063 7.60884C15.9644 7.60884 15.8669 7.62825 15.7758 7.66596C15.6848 7.70367 15.602 7.75894 15.5324 7.82863L8.03236 15.3286C7.96268 15.3983 7.9074 15.481 7.86969 15.5721C7.83198 15.6631 7.81257 15.7607 7.81257 15.8593C7.81257 15.9578 7.83198 16.0554 7.86969 16.1464C7.9074 16.2375 7.96268 16.3202 8.03236 16.3899C8.17309 16.5306 8.36397 16.6097 8.56299 16.6097C8.66153 16.6097 8.75912 16.5903 8.85016 16.5525C8.94121 16.5148 9.02393 16.4596 9.09361 16.3899L16.5936 8.88988ZM17.563 15.1093C17.563 14.6642 17.431 14.2292 17.1838 13.8592C16.9366 13.4892 16.5852 13.2008 16.174 13.0305C15.7629 12.8602 15.3105 12.8157 14.874 12.9025C14.4376 12.9893 14.0367 13.2036 13.722 13.5183C13.4073 13.8329 13.193 14.2338 13.1062 14.6703C13.0194 15.1068 13.064 15.5592 13.2343 15.9703C13.4046 16.3814 13.6929 16.7328 14.063 16.9801C14.433 17.2273 14.868 17.3593 15.313 17.3593C15.9097 17.3593 16.482 17.1222 16.904 16.7002C17.3259 16.2783 17.563 15.706 17.563 15.1093Z" fill="white"/>
</svg>
