<svg width="25" height="25" viewBox="0 0 25 25" fill="none" xmlns="http://www.w3.org/2000/svg">
<path d="M21.6763 10.4133C21.3229 10.0439 20.9573 9.6633 20.8195 9.32861C20.692 9.02205 20.6845 8.51393 20.677 8.02174C20.6629 7.10674 20.6479 6.06986 19.927 5.34893C19.206 4.62799 18.1691 4.61299 17.2541 4.59893C16.762 4.59143 16.2538 4.58393 15.9473 4.45643C15.6135 4.31861 15.232 3.95299 14.8626 3.59955C14.2157 2.97799 13.4807 2.27393 12.502 2.27393C11.5232 2.27393 10.7891 2.97799 10.1413 3.59955C9.77195 3.95299 9.39133 4.31861 9.05664 4.45643C8.75195 4.58393 8.24195 4.59143 7.74977 4.59893C6.83477 4.61299 5.79789 4.62799 5.07695 5.34893C4.35602 6.06986 4.3457 7.10674 4.32695 8.02174C4.31945 8.51393 4.31195 9.02205 4.18445 9.32861C4.04664 9.66236 3.68102 10.0439 3.32758 10.4133C2.70602 11.0602 2.00195 11.7952 2.00195 12.7739C2.00195 13.7527 2.70602 14.4867 3.32758 15.1346C3.68102 15.5039 4.04664 15.8846 4.18445 16.2192C4.31195 16.5258 4.31945 17.0339 4.32695 17.5261C4.34102 18.4411 4.35602 19.478 5.07695 20.1989C5.79789 20.9199 6.83477 20.9349 7.74977 20.9489C8.24195 20.9564 8.75008 20.9639 9.05664 21.0914C9.39039 21.2292 9.77195 21.5949 10.1413 21.9483C10.7882 22.5699 11.5232 23.2739 12.502 23.2739C13.4807 23.2739 14.2148 22.5699 14.8626 21.9483C15.232 21.5949 15.6126 21.2292 15.9473 21.0914C16.2538 20.9639 16.762 20.9564 17.2541 20.9489C18.1691 20.9349 19.206 20.9199 19.927 20.1989C20.6479 19.478 20.6629 18.4411 20.677 17.5261C20.6845 17.0339 20.692 16.5258 20.8195 16.2192C20.9573 15.8855 21.3229 15.5039 21.6763 15.1346C22.2979 14.4877 23.002 13.7527 23.002 12.7739C23.002 11.7952 22.2979 11.0611 21.6763 10.4133ZM16.7826 11.0546L11.5326 16.3046C11.4629 16.3743 11.3802 16.4296 11.2892 16.4673C11.1981 16.5051 11.1005 16.5245 11.002 16.5245C10.9034 16.5245 10.8058 16.5051 10.7147 16.4673C10.6237 16.4296 10.541 16.3743 10.4713 16.3046L8.22133 14.0546C8.0806 13.9138 8.00154 13.7229 8.00154 13.5239C8.00154 13.3249 8.0806 13.134 8.22133 12.9933C8.36206 12.8526 8.55293 12.7735 8.75195 12.7735C8.95098 12.7735 9.14185 12.8526 9.28258 12.9933L11.002 14.7136L15.7213 9.9933C15.791 9.92362 15.8737 9.86834 15.9648 9.83063C16.0558 9.79292 16.1534 9.77351 16.252 9.77351C16.3505 9.77351 16.4481 9.79292 16.5391 9.83063C16.6302 9.86834 16.7129 9.92362 16.7826 9.9933C16.8523 10.063 16.9075 10.1457 16.9452 10.2368C16.983 10.3278 17.0024 10.4254 17.0024 10.5239C17.0024 10.6225 16.983 10.7201 16.9452 10.8111C16.9075 10.9021 16.8523 10.9849 16.7826 11.0546Z" fill="white"/>
</svg>
