<svg width="25" height="25" viewBox="0 0 25 25" fill="none" xmlns="http://www.w3.org/2000/svg">
<g clip-path="url(#clip0_83_1009)">
<path d="M20.4389 13.853C20.4408 14.1588 20.3479 14.4577 20.1729 14.7085C19.998 14.9593 19.7496 15.1498 19.462 15.2537L14.6264 17.0405L12.8451 21.8799C12.7396 22.1665 12.5488 22.4138 12.2983 22.5885C12.0479 22.7632 11.7499 22.8568 11.4445 22.8568C11.1391 22.8568 10.8411 22.7632 10.5907 22.5885C10.3402 22.4138 10.1494 22.1665 10.0439 21.8799L8.25137 17.0405L3.41199 15.2593C3.12543 15.1538 2.87811 14.9629 2.70342 14.7125C2.52872 14.462 2.43506 14.164 2.43506 13.8587C2.43506 13.5533 2.52872 13.2553 2.70342 13.0048C2.87811 12.7544 3.12543 12.5635 3.41199 12.458L8.25137 10.6655L10.0326 5.82615C10.1381 5.53959 10.3289 5.29227 10.5794 5.11758C10.8299 4.94288 11.1279 4.84922 11.4332 4.84922C11.7386 4.84922 12.0366 4.94288 12.2871 5.11758C12.5375 5.29227 12.7284 5.53959 12.8339 5.82615L14.6264 10.6655L19.4657 12.4468C19.7536 12.5516 20.0018 12.7432 20.1761 12.995C20.3504 13.2469 20.4422 13.5467 20.4389 13.853ZM15.1889 4.85303H16.6889V6.35303C16.6889 6.55194 16.7679 6.7427 16.9085 6.88336C17.0492 7.02401 17.24 7.10303 17.4389 7.10303C17.6378 7.10303 17.8285 7.02401 17.9692 6.88336C18.1099 6.7427 18.1889 6.55194 18.1889 6.35303V4.85303H19.6889C19.8878 4.85303 20.0785 4.77401 20.2192 4.63336C20.3599 4.49271 20.4389 4.30194 20.4389 4.10303C20.4389 3.90411 20.3599 3.71335 20.2192 3.5727C20.0785 3.43205 19.8878 3.35303 19.6889 3.35303H18.1889V1.85303C18.1889 1.65411 18.1099 1.46335 17.9692 1.3227C17.8285 1.18204 17.6378 1.10303 17.4389 1.10303C17.24 1.10303 17.0492 1.18204 16.9085 1.3227C16.7679 1.46335 16.6889 1.65411 16.6889 1.85303V3.35303H15.1889C14.99 3.35303 14.7992 3.43205 14.6585 3.5727C14.5179 3.71335 14.4389 3.90411 14.4389 4.10303C14.4389 4.30194 14.5179 4.49271 14.6585 4.63336C14.7992 4.77401 14.99 4.85303 15.1889 4.85303ZM23.4389 7.85303H22.6889V7.10303C22.6889 6.90412 22.6099 6.71335 22.4692 6.5727C22.3285 6.43204 22.1378 6.35303 21.9389 6.35303C21.74 6.35303 21.5492 6.43204 21.4085 6.5727C21.2679 6.71335 21.1889 6.90412 21.1889 7.10303V7.85303H20.4389C20.24 7.85303 20.0492 7.93204 19.9085 8.0727C19.7679 8.21335 19.6889 8.40412 19.6889 8.60303C19.6889 8.80194 19.7679 8.9927 19.9085 9.13336C20.0492 9.27401 20.24 9.35303 20.4389 9.35303H21.1889V10.103C21.1889 10.3019 21.2679 10.4927 21.4085 10.6334C21.5492 10.774 21.74 10.853 21.9389 10.853C22.1378 10.853 22.3285 10.774 22.4692 10.6334C22.6099 10.4927 22.6889 10.3019 22.6889 10.103V9.35303H23.4389C23.6378 9.35303 23.8285 9.27401 23.9692 9.13336C24.1099 8.9927 24.1889 8.80194 24.1889 8.60303C24.1889 8.40412 24.1099 8.21335 23.9692 8.0727C23.8285 7.93204 23.6378 7.85303 23.4389 7.85303Z" fill="white"/>
</g>
<defs>
<clipPath id="clip0_83_1009">
<rect width="24" height="24" fill="white" transform="translate(0.938965 0.353027)"/>
</clipPath>
</defs>
</svg>
