<svg width="25" height="25" viewBox="0 0 25 25" fill="none" xmlns="http://www.w3.org/2000/svg">
<path d="M11.5967 5.42859V9.92859C11.5967 10.3264 11.4386 10.7079 11.1573 10.9892C10.876 11.2706 10.4945 11.4286 10.0967 11.4286H5.59668C5.19885 11.4286 4.81732 11.2706 4.53602 10.9892C4.25471 10.7079 4.09668 10.3264 4.09668 9.92859V5.42859C4.09668 5.03076 4.25471 4.64923 4.53602 4.36793C4.81732 4.08662 5.19885 3.92859 5.59668 3.92859H10.0967C10.4945 3.92859 10.876 4.08662 11.1573 4.36793C11.4386 4.64923 11.5967 5.03076 11.5967 5.42859ZM19.0967 3.92859H14.5967C14.1989 3.92859 13.8173 4.08662 13.536 4.36793C13.2547 4.64923 13.0967 5.03076 13.0967 5.42859V9.92859C13.0967 10.3264 13.2547 10.7079 13.536 10.9892C13.8173 11.2706 14.1989 11.4286 14.5967 11.4286H19.0967C19.4945 11.4286 19.876 11.2706 20.1573 10.9892C20.4386 10.7079 20.5967 10.3264 20.5967 9.92859V5.42859C20.5967 5.03076 20.4386 4.64923 20.1573 4.36793C19.876 4.08662 19.4945 3.92859 19.0967 3.92859ZM10.0967 12.9286H5.59668C5.19885 12.9286 4.81732 13.0866 4.53602 13.3679C4.25471 13.6492 4.09668 14.0308 4.09668 14.4286V18.9286C4.09668 19.3264 4.25471 19.7079 4.53602 19.9892C4.81732 20.2706 5.19885 20.4286 5.59668 20.4286H10.0967C10.4945 20.4286 10.876 20.2706 11.1573 19.9892C11.4386 19.7079 11.5967 19.3264 11.5967 18.9286V14.4286C11.5967 14.0308 11.4386 13.6492 11.1573 13.3679C10.876 13.0866 10.4945 12.9286 10.0967 12.9286ZM19.0967 12.9286H14.5967C14.1989 12.9286 13.8173 13.0866 13.536 13.3679C13.2547 13.6492 13.0967 14.0308 13.0967 14.4286V18.9286C13.0967 19.3264 13.2547 19.7079 13.536 19.9892C13.8173 20.2706 14.1989 20.4286 14.5967 20.4286H19.0967C19.4945 20.4286 19.876 20.2706 20.1573 19.9892C20.4386 19.7079 20.5967 19.3264 20.5967 18.9286V14.4286C20.5967 14.0308 20.4386 13.6492 20.1573 13.3679C19.876 13.0866 19.4945 12.9286 19.0967 12.9286Z" fill="white"/>
</svg>
