<svg width="25" height="25" viewBox="0 0 25 25" fill="none" xmlns="http://www.w3.org/2000/svg">
<path d="M22.8125 12.7207C22.8149 13.0283 22.7214 13.329 22.5449 13.5811C22.3685 13.8331 22.118 14.0239 21.8281 14.1269L15.8806 16.2898L13.7187 22.2363C13.6122 22.5234 13.4203 22.771 13.169 22.9458C12.9176 23.1206 12.6187 23.2143 12.3125 23.2143C12.0063 23.2143 11.7074 23.1206 11.456 22.9458C11.2047 22.771 11.0128 22.5234 10.9062 22.2363L8.74437 16.2888L2.79687 14.1269C2.5098 14.0204 2.26222 13.8285 2.08739 13.5772C1.91256 13.3258 1.81885 13.0269 1.81885 12.7207C1.81885 12.4145 1.91256 12.1156 2.08739 11.8642C2.26222 11.6129 2.5098 11.421 2.79687 11.3144L8.74437 9.15257L10.9062 3.20507C11.0128 2.91801 11.2047 2.67043 11.456 2.49559C11.7074 2.32076 12.0063 2.22705 12.3125 2.22705C12.6187 2.22705 12.9176 2.32076 13.169 2.49559C13.4203 2.67043 13.6122 2.91801 13.7187 3.20507L15.8816 9.15257L21.8281 11.3144C22.118 11.4175 22.3685 11.6083 22.5449 11.8603C22.7214 12.1123 22.8149 12.4131 22.8125 12.7207Z" fill="white"/>
</svg>
