<svg width="21" height="20" viewBox="0 0 21 20" fill="none" xmlns="http://www.w3.org/2000/svg">
<path d="M18.9035 7.66656L17.7832 3.94004C17.7079 3.69283 17.5503 3.4754 17.3342 3.32023C17.1181 3.16506 16.8549 3.08048 16.584 3.0791H5.02148C4.75057 3.08048 4.4874 3.16506 4.27126 3.32023C4.05512 3.4754 3.89762 3.69283 3.82227 3.94004L2.70195 7.66656C2.68594 7.7194 2.67779 7.77411 2.67773 7.8291V9.0166C2.67773 9.47749 2.79069 9.93204 3.00765 10.3443C3.22461 10.7565 3.53962 11.1151 3.92773 11.3916V16.7354C3.92773 16.8928 3.99358 17.0438 4.11079 17.1552C4.228 17.2665 4.38697 17.3291 4.55273 17.3291H17.0527C17.2185 17.3291 17.3775 17.2665 17.4947 17.1552C17.6119 17.0438 17.6777 16.8928 17.6777 16.7354V11.3916C18.0658 11.1151 18.3809 10.7565 18.5978 10.3443C18.8148 9.93204 18.9277 9.47749 18.9277 9.0166V7.8291C18.9277 7.77411 18.9195 7.7194 18.9035 7.66656ZM7.67773 9.0166C7.67762 9.32291 7.59437 9.62401 7.43601 9.89082C7.27765 10.1576 7.04954 10.3812 6.77372 10.5398C6.4979 10.6984 6.18367 10.7868 5.86141 10.7964C5.53914 10.8059 5.21971 10.7364 4.93398 10.5945C4.89051 10.5623 4.84268 10.5359 4.7918 10.5158C4.52701 10.3548 4.3091 10.1331 4.15811 9.8711C4.00712 9.60912 3.9279 9.31528 3.92773 9.0166V8.42285H7.67773V9.0166ZM12.6777 9.0166C12.6777 9.48902 12.4802 9.94209 12.1286 10.2761C11.7769 10.6102 11.3 10.7979 10.8027 10.7979C10.3055 10.7979 9.82854 10.6102 9.47691 10.2761C9.12528 9.94209 8.92773 9.48902 8.92773 9.0166V8.42285H12.6777V9.0166ZM17.6777 9.0166C17.6775 9.31535 17.5981 9.60923 17.447 9.87122C17.2959 10.1332 17.0778 10.3549 16.8129 10.5158C16.7627 10.5359 16.7154 10.5621 16.6723 10.5938C16.3866 10.7358 16.0671 10.8055 15.7448 10.796C15.4225 10.7866 15.1082 10.6983 14.8323 10.5397C14.5564 10.3812 14.3282 10.1577 14.1697 9.89088C14.0113 9.62407 13.9279 9.32295 13.9277 9.0166V8.42285H17.6777V9.0166Z" fill="white"/>
</svg>
