<svg width="18" height="18" viewBox="0 0 18 18" fill="none" xmlns="http://www.w3.org/2000/svg">
<g clip-path="url(#clip0_192_364)">
<path d="M17.0353 17.0358L13.8634 13.8639M8.51744 16.0715C10.5208 16.0715 12.4421 15.2757 13.8586 13.8591C15.2752 12.4425 16.071 10.5213 16.071 8.51793C16.071 6.5146 15.2752 4.59331 13.8586 3.17675C12.4421 1.76018 10.5208 0.964355 8.51744 0.964355C6.51411 0.964355 4.59283 1.76018 3.17626 3.17675C1.75969 4.59331 0.963867 6.5146 0.963867 8.51793C0.963867 10.5213 1.75969 12.4425 3.17626 13.8591C4.59283 15.2757 6.51411 16.0715 8.51744 16.0715Z" stroke="white" stroke-linecap="round" stroke-linejoin="round"/>
<path d="M7.07143 5.78564L4.5 8.35707L7.07143 10.9285M9.64286 5.78564L12.2143 8.35707L9.64286 10.9285" stroke="white" stroke-linecap="round" stroke-linejoin="round"/>
</g>
<defs>
<clipPath id="clip0_192_364">
<rect width="18" height="18" fill="white"/>
</clipPath>
</defs>
</svg>
