<svg width="25" height="25" viewBox="0 0 25 25" fill="none" xmlns="http://www.w3.org/2000/svg">
<path d="M21.5497 5.77336L12.5497 2.77336C12.3957 2.72203 12.2293 2.72203 12.0753 2.77336L3.07531 5.77336C2.92597 5.82314 2.79608 5.91865 2.70405 6.04636C2.61201 6.17407 2.56249 6.3275 2.5625 6.48492V13.9849C2.5625 14.1838 2.64152 14.3746 2.78217 14.5153C2.92282 14.6559 3.11359 14.7349 3.3125 14.7349C3.51141 14.7349 3.70218 14.6559 3.84283 14.5153C3.98348 14.3746 4.0625 14.1838 4.0625 13.9849V7.52554L7.21156 8.57461C6.3749 9.9263 6.10884 11.5548 6.47181 13.1025C6.83479 14.6501 7.79712 15.9905 9.1475 16.8293C7.46 17.4912 6.00125 18.6884 4.93437 20.3252C4.87889 20.4077 4.84035 20.5004 4.82099 20.5979C4.80164 20.6954 4.80186 20.7957 4.82163 20.8931C4.84141 20.9905 4.88035 21.083 4.93619 21.1653C4.99203 21.2475 5.06366 21.3178 5.14691 21.3721C5.23016 21.4264 5.32337 21.4636 5.42113 21.4816C5.51889 21.4995 5.61924 21.4979 5.71636 21.4767C5.81347 21.4555 5.90541 21.4153 5.98683 21.3583C6.06825 21.3013 6.13752 21.2286 6.19063 21.1446C7.60344 18.9771 9.83469 17.7349 12.3125 17.7349C14.7903 17.7349 17.0216 18.9771 18.4344 21.1446C18.5444 21.3081 18.7143 21.4217 18.9074 21.4609C19.1005 21.5001 19.3013 21.4618 19.4664 21.3541C19.6314 21.2465 19.7475 21.0782 19.7894 20.8857C19.8314 20.6931 19.7959 20.4918 19.6906 20.3252C18.6237 18.6884 17.1594 17.4912 15.4775 16.8293C16.8266 15.9906 17.788 14.651 18.1509 13.1045C18.5138 11.5579 18.2486 9.93059 17.4134 8.57929L21.5497 7.20117C21.6991 7.15141 21.829 7.05592 21.9211 6.9282C22.0131 6.80049 22.0627 6.64705 22.0627 6.48961C22.0627 6.33217 22.0131 6.17872 21.9211 6.05101C21.829 5.9233 21.6991 5.8278 21.5497 5.77804V5.77336ZM16.8125 11.7349C16.8127 12.4463 16.6442 13.1477 16.3209 13.7814C15.9976 14.4151 15.5286 14.9631 14.9524 15.3805C14.3763 15.7978 13.7094 16.0726 13.0065 16.1824C12.3036 16.2921 11.5847 16.2336 10.9087 16.0116C10.2328 15.7897 9.61913 15.4107 9.11805 14.9057C8.61698 14.4006 8.24278 13.784 8.02617 13.1064C7.80955 12.4287 7.75669 11.7094 7.87192 11.0073C7.98715 10.3053 8.26719 9.64058 8.68906 9.06773L12.0753 10.1927C12.2293 10.2441 12.3957 10.2441 12.5497 10.1927L15.9359 9.06773C16.5057 9.84023 16.813 10.775 16.8125 11.7349Z" fill="white"/>
</svg>
