<svg width="25" height="25" viewBox="0 0 25 25" fill="none" xmlns="http://www.w3.org/2000/svg">
<path d="M7.56897 3.84473H16.498C16.8228 3.84558 17.1424 3.92551 17.4294 4.07761C17.7164 4.22972 17.962 4.44942 18.145 4.71773L21.681 9.91073C21.9352 10.2834 22.0563 10.7308 22.025 11.1808C21.9936 11.6307 21.8114 12.057 21.508 12.3907L13.508 21.1807C13.3199 21.3876 13.0906 21.5529 12.8349 21.6661C12.5791 21.7792 12.3026 21.8376 12.023 21.8376C11.7433 21.8376 11.4668 21.7792 11.2111 21.6661C10.9553 21.5529 10.7261 21.3876 10.538 21.1807L2.53797 12.3917C2.48839 12.3383 2.4448 12.2796 2.40797 12.2167L2.39597 12.1907L2.34497 12.1187C2.15002 11.812 2.04185 11.4582 2.03199 11.095C2.02213 10.7317 2.11094 10.3725 2.28897 10.0557L2.37897 9.90973L5.91997 4.71673C6.29197 4.17273 6.90697 3.84673 7.56897 3.84473Z" fill="white"/>
</svg>
