<svg width="25" height="25" viewBox="0 0 25 25" fill="none" xmlns="http://www.w3.org/2000/svg">
<path d="M23.0994 12.8096L13.7891 3.49927C13.6503 3.35937 13.4851 3.24846 13.3031 3.17298C13.121 3.09749 12.9258 3.05895 12.7288 3.05958H4.03907C3.84016 3.05958 3.64939 3.1386 3.50874 3.27925C3.36809 3.4199 3.28907 3.61067 3.28907 3.80958V12.4993C3.28844 12.6963 3.32699 12.8915 3.40247 13.0736C3.47795 13.2556 3.58886 13.4208 3.72876 13.5596L13.0391 22.8699C13.1784 23.0092 13.3437 23.1197 13.5257 23.1951C13.7078 23.2705 13.9028 23.3094 14.0999 23.3094C14.2969 23.3094 14.4919 23.2705 14.674 23.1951C14.856 23.1197 15.0213 23.0092 15.1606 22.8699L23.0994 14.9311C23.2387 14.7918 23.3492 14.6265 23.4246 14.4445C23.5 14.2625 23.5388 14.0674 23.5388 13.8704C23.5388 13.6733 23.5 13.4783 23.4246 13.2963C23.3492 13.1142 23.2387 12.9489 23.0994 12.8096ZM8.16407 9.05958C7.94157 9.05958 7.72406 8.9936 7.53905 8.86998C7.35405 8.74636 7.20985 8.57066 7.12471 8.3651C7.03956 8.15953 7.01728 7.93333 7.06069 7.7151C7.10409 7.49687 7.21124 7.29642 7.36857 7.13908C7.52591 6.98175 7.72636 6.8746 7.94459 6.83119C8.16282 6.78779 8.38902 6.81006 8.59459 6.89521C8.80016 6.98036 8.97586 7.12456 9.09947 7.30956C9.22309 7.49457 9.28907 7.71207 9.28907 7.93458C9.28907 8.23295 9.17054 8.51909 8.95957 8.73007C8.74859 8.94105 8.46244 9.05958 8.16407 9.05958Z" fill="white"/>
</svg>
