<svg width="25" height="24" viewBox="0 0 25 24" fill="none" xmlns="http://www.w3.org/2000/svg">
<path d="M21.9424 7.28994C21.8494 7.19621 21.7388 7.12182 21.6169 7.07105C21.4951 7.02028 21.3644 6.99414 21.2324 6.99414C21.1003 6.99414 20.9696 7.02028 20.8478 7.07105C20.7259 7.12182 20.6153 7.19621 20.5224 7.28994L14.2324 13.5899L9.94236 9.28994C9.8494 9.19621 9.7388 9.12182 9.61694 9.07105C9.49508 9.02028 9.36437 8.99414 9.23236 8.99414C9.10035 8.99414 8.96964 9.02028 8.84778 9.07105C8.72592 9.12182 8.61532 9.19621 8.52236 9.28994L2.52236 15.2899C2.42863 15.3829 2.35424 15.4935 2.30347 15.6154C2.2527 15.7372 2.22656 15.8679 2.22656 15.9999C2.22656 16.132 2.2527 16.2627 2.30347 16.3845C2.35424 16.5064 2.42863 16.617 2.52236 16.7099C2.61532 16.8037 2.72593 16.8781 2.84778 16.9288C2.96964 16.9796 3.10035 17.0057 3.23236 17.0057C3.36437 17.0057 3.49508 16.9796 3.61694 16.9288C3.7388 16.8781 3.8494 16.8037 3.94236 16.7099L9.23236 11.4099L13.5224 15.7099C13.6153 15.8037 13.7259 15.8781 13.8478 15.9288C13.9696 15.9796 14.1003 16.0057 14.2324 16.0057C14.3644 16.0057 14.4951 15.9796 14.6169 15.9288C14.7388 15.8781 14.8494 15.8037 14.9424 15.7099L21.9424 8.70994C22.0361 8.61698 22.1105 8.50638 22.1613 8.38452C22.212 8.26266 22.2382 8.13195 22.2382 7.99994C22.2382 7.86793 22.212 7.73722 22.1613 7.61536C22.1105 7.4935 22.0361 7.3829 21.9424 7.28994Z" fill="white"/>
</svg>
