<svg width="25" height="25" viewBox="0 0 25 25" fill="none" xmlns="http://www.w3.org/2000/svg">
<path d="M6.32327 14.3901C6.32582 14.4409 6.318 14.4917 6.30029 14.5394C6.28259 14.587 6.25537 14.6306 6.22029 14.6675C6.18521 14.7043 6.14301 14.7336 6.09624 14.7536C6.04948 14.7736 5.99914 14.7839 5.94827 14.7838H1.81202C1.64274 14.7841 1.47836 14.7271 1.34559 14.6221C1.21283 14.517 1.11949 14.3702 1.08077 14.2054C1.05666 14.0926 1.05777 13.9759 1.08403 13.8636C1.11028 13.7512 1.16103 13.6461 1.23265 13.5557C1.89434 12.6782 2.77229 11.9873 3.78077 11.5504C3.33802 11.1467 2.99843 10.6428 2.79047 10.0809C2.5825 9.51899 2.51221 8.91542 2.58547 8.32076C2.65874 7.72609 2.87342 7.15764 3.21156 6.66301C3.54969 6.16837 4.00143 5.76197 4.52892 5.47782C5.05642 5.19367 5.64433 5.04006 6.2434 5.02984C6.84248 5.01963 7.43528 5.15311 7.97216 5.41911C8.50904 5.68511 8.97436 6.07588 9.32916 6.5587C9.68396 7.04152 9.9179 7.60232 10.0114 8.19415C10.0235 8.27373 10.0092 8.35508 9.9708 8.42582C9.93238 8.49656 9.87191 8.55281 9.79858 8.58602C8.75833 9.06694 7.87733 9.83537 7.25956 10.8007C6.64178 11.7659 6.31301 12.8878 6.31202 14.0338C6.31202 14.1538 6.31202 14.272 6.32327 14.3901ZM23.3858 13.5548C22.7256 12.6783 21.8497 11.9877 20.8433 11.5504C21.286 11.1467 21.6256 10.6428 21.8336 10.0809C22.0415 9.51899 22.1118 8.91542 22.0386 8.32076C21.9653 7.72609 21.7506 7.15764 21.4125 6.66301C21.0744 6.16837 20.6226 5.76197 20.0951 5.47782C19.5676 5.19367 18.9797 5.04006 18.3806 5.02984C17.7816 5.01963 17.1888 5.15311 16.6519 5.41911C16.115 5.68511 15.6497 6.07588 15.2949 6.5587C14.9401 7.04152 14.7061 7.60232 14.6126 8.19415C14.6006 8.27373 14.6148 8.35508 14.6532 8.42582C14.6917 8.49656 14.7521 8.55281 14.8255 8.58602C15.8657 9.06694 16.7467 9.83537 17.3645 10.8007C17.9823 11.7659 18.311 12.8878 18.312 14.0338C18.312 14.1538 18.312 14.272 18.3008 14.3901C18.2982 14.4409 18.306 14.4917 18.3237 14.5394C18.3415 14.587 18.3687 14.6306 18.4037 14.6675C18.4388 14.7043 18.481 14.7336 18.5278 14.7536C18.5746 14.7736 18.6249 14.7839 18.6758 14.7838H22.812C22.9813 14.7841 23.1457 14.7271 23.2785 14.6221C23.4112 14.517 23.5045 14.3702 23.5433 14.2054C23.5675 14.0924 23.5664 13.9754 23.54 13.8629C23.5136 13.7504 23.4625 13.6452 23.3905 13.5548H23.3858ZM15.042 17.6029C15.7888 17.031 16.3376 16.2395 16.6112 15.3395C16.8849 14.4396 16.8697 13.4766 16.5678 12.5858C16.2659 11.6949 15.6924 10.9211 14.9279 10.3731C14.1635 9.82499 13.2465 9.53025 12.3059 9.53025C11.3653 9.53025 10.4484 9.82499 9.68392 10.3731C8.91949 10.9211 8.346 11.6949 8.04407 12.5858C7.74214 13.4766 7.72694 14.4396 8.00061 15.3395C8.27428 16.2395 8.82307 17.031 9.56983 17.6029C8.24471 18.1771 7.13821 19.1604 6.41233 20.4088C6.3465 20.5229 6.31185 20.6522 6.31185 20.7839C6.31186 20.9155 6.34653 21.0449 6.41238 21.1589C6.47822 21.2729 6.57292 21.3676 6.68696 21.4334C6.801 21.4992 6.93036 21.5339 7.06202 21.5338H17.562C17.6937 21.5339 17.823 21.4992 17.9371 21.4334C18.0511 21.3676 18.1458 21.2729 18.2117 21.1589C18.2775 21.0449 18.3122 20.9155 18.3122 20.7839C18.3122 20.6522 18.2775 20.5229 18.2117 20.4088C17.4843 19.1595 16.3757 18.1762 15.0486 17.6029H15.042Z" fill="white"/>
</svg>
