<svg width="25" height="25" viewBox="0 0 25 25" fill="none" xmlns="http://www.w3.org/2000/svg">
<path d="M21.877 3.98291V7.35791C21.877 7.55682 21.7979 7.74759 21.6573 7.88824C21.5166 8.02889 21.3259 8.10791 21.127 8.10791C20.928 8.10791 20.7373 8.02889 20.5966 7.88824C20.456 7.74759 20.377 7.55682 20.377 7.35791V4.73291H17.752C17.553 4.73291 17.3623 4.65389 17.2216 4.51324C17.081 4.37259 17.002 4.18182 17.002 3.98291C17.002 3.784 17.081 3.59323 17.2216 3.45258C17.3623 3.31193 17.553 3.23291 17.752 3.23291H21.127C21.3259 3.23291 21.5166 3.31193 21.6573 3.45258C21.7979 3.59323 21.877 3.784 21.877 3.98291ZM21.127 16.3579C20.928 16.3579 20.7373 16.4369 20.5966 16.5776C20.456 16.7182 20.377 16.909 20.377 17.1079V19.7329H17.752C17.553 19.7329 17.3623 19.8119 17.2216 19.9526C17.081 20.0932 17.002 20.284 17.002 20.4829C17.002 20.6818 17.081 20.8726 17.2216 21.0132C17.3623 21.1539 17.553 21.2329 17.752 21.2329H21.127C21.3259 21.2329 21.5166 21.1539 21.6573 21.0132C21.7979 20.8726 21.877 20.6818 21.877 20.4829V17.1079C21.877 16.909 21.7979 16.7182 21.6573 16.5776C21.5166 16.4369 21.3259 16.3579 21.127 16.3579ZM8.00195 19.7329H5.37695V17.1079C5.37695 16.909 5.29794 16.7182 5.15728 16.5776C5.01663 16.4369 4.82587 16.3579 4.62695 16.3579C4.42804 16.3579 4.23728 16.4369 4.09662 16.5776C3.95597 16.7182 3.87695 16.909 3.87695 17.1079V20.4829C3.87695 20.6818 3.95597 20.8726 4.09662 21.0132C4.23728 21.1539 4.42804 21.2329 4.62695 21.2329H8.00195C8.20087 21.2329 8.39163 21.1539 8.53228 21.0132C8.67294 20.8726 8.75195 20.6818 8.75195 20.4829C8.75195 20.284 8.67294 20.0932 8.53228 19.9526C8.39163 19.8119 8.20087 19.7329 8.00195 19.7329ZM4.62695 8.10791C4.82587 8.10791 5.01663 8.02889 5.15728 7.88824C5.29794 7.74759 5.37695 7.55682 5.37695 7.35791V4.73291H8.00195C8.20087 4.73291 8.39163 4.65389 8.53228 4.51324C8.67294 4.37259 8.75195 4.18182 8.75195 3.98291C8.75195 3.784 8.67294 3.59323 8.53228 3.45258C8.39163 3.31193 8.20087 3.23291 8.00195 3.23291H4.62695C4.42804 3.23291 4.23728 3.31193 4.09662 3.45258C3.95597 3.59323 3.87695 3.784 3.87695 3.98291V7.35791C3.87695 7.55682 3.95597 7.74759 4.09662 7.88824C4.23728 8.02889 4.42804 8.10791 4.62695 8.10791ZM10.3457 13.4995C9.32691 13.9414 8.44137 14.6421 7.77695 15.532C7.69311 15.6434 7.642 15.776 7.62934 15.9149C7.61669 16.0537 7.643 16.1934 7.70532 16.3181C7.76765 16.4429 7.86351 16.5478 7.98215 16.621C8.10079 16.6943 8.23751 16.733 8.37695 16.7329H17.377C17.5164 16.733 17.6531 16.6943 17.7718 16.621C17.8904 16.5478 17.9863 16.4429 18.0486 16.3181C18.1109 16.1934 18.1372 16.0537 18.1246 15.9149C18.1119 15.776 18.0608 15.6434 17.977 15.532C17.3125 14.6421 16.427 13.9414 15.4082 13.4995C15.9667 12.9896 16.3579 12.3228 16.5306 11.5866C16.7034 10.8504 16.6495 10.0792 16.376 9.37412C16.1026 8.66908 15.6224 8.06319 14.9984 7.63595C14.3745 7.20871 13.636 6.98009 12.8798 6.98009C12.1236 6.98009 11.385 7.20871 10.7611 7.63595C10.1371 8.06319 9.65694 8.66908 9.3835 9.37412C9.11007 10.0792 9.05617 10.8504 9.22889 11.5866C9.40161 12.3228 9.79287 12.9896 10.3513 13.4995H10.3457Z" fill="white"/>
</svg>
