<svg width="18" height="17" viewBox="0 0 18 17" fill="none" xmlns="http://www.w3.org/2000/svg">
<path d="M17.2263 15.9951C17.1691 16.0941 17.0869 16.1764 16.9878 16.2335C16.8888 16.2907 16.7764 16.3208 16.6621 16.3207H1.03147C0.917202 16.3206 0.804977 16.2904 0.706064 16.2332C0.60715 16.176 0.525029 16.0938 0.467947 15.9948C0.410865 15.8958 0.38083 15.7836 0.380859 15.6693C0.380889 15.555 0.410981 15.4428 0.468114 15.3438C1.70798 13.2003 3.61866 11.6633 5.84847 10.9347C4.74551 10.2781 3.88857 9.27758 3.40927 8.08681C2.92996 6.89605 2.85478 5.58087 3.19528 4.34325C3.53578 3.10562 4.27313 2.01399 5.29409 1.23598C6.31505 0.457977 7.56317 0.0366211 8.84678 0.0366211C10.1304 0.0366211 11.3785 0.457977 12.3995 1.23598C13.4204 2.01399 14.1578 3.10562 14.4983 4.34325C14.8388 5.58087 14.7636 6.89605 14.2843 8.08681C13.805 9.27758 12.9481 10.2781 11.8451 10.9347C14.0749 11.6633 15.9856 13.2003 17.2254 15.3438C17.2827 15.4428 17.313 15.555 17.3131 15.6694C17.3133 15.7837 17.2833 15.896 17.2263 15.9951Z" fill="white"/>
</svg>
