<svg width="14" height="15" viewBox="0 0 14 15" fill="none" xmlns="http://www.w3.org/2000/svg">
<path d="M12.8149 4.62829C12.7634 4.42669 12.6647 4.24022 12.5269 4.08428C12.3891 3.92834 12.2162 3.80739 12.0225 3.73142C10.1478 3.00736 7.16406 3.01392 7 3.01392C6.83594 3.01392 3.85219 3.00736 1.9775 3.73142C1.78378 3.80739 1.61089 3.92834 1.47311 4.08428C1.33533 4.24022 1.23661 4.42669 1.18508 4.62829C1.04344 5.17407 0.875 6.17157 0.875 7.82642C0.875 9.48126 1.04344 10.4788 1.18508 11.0245C1.23653 11.2262 1.33522 11.4128 1.47301 11.5689C1.61079 11.7249 1.78371 11.8459 1.9775 11.922C3.77344 12.6149 6.58437 12.6389 6.96391 12.6389H7.03609C7.41563 12.6389 10.2282 12.6149 12.0225 11.922C12.2163 11.8459 12.3892 11.7249 12.527 11.5689C12.6648 11.4128 12.7635 11.2262 12.8149 11.0245C12.9566 10.4777 13.125 9.48126 13.125 7.82642C13.125 6.17157 12.9566 5.17407 12.8149 4.62829ZM8.78227 8.18298L6.59477 9.71423C6.52933 9.76007 6.45259 9.78712 6.37287 9.79244C6.29315 9.79776 6.2135 9.78114 6.14256 9.7444C6.07161 9.70766 6.01208 9.65219 5.97042 9.58402C5.92876 9.51584 5.90657 9.43756 5.90625 9.35767V6.29517C5.90627 6.21513 5.92825 6.13664 5.96979 6.06823C6.01132 5.99982 6.07083 5.94411 6.14183 5.90717C6.21283 5.87024 6.2926 5.85348 6.37246 5.85873C6.45233 5.86399 6.52922 5.89105 6.59477 5.93696L8.78227 7.46821C8.83981 7.50857 8.88678 7.56219 8.91921 7.62454C8.95164 7.68689 8.96857 7.75614 8.96857 7.82642C8.96857 7.8967 8.95164 7.96595 8.91921 8.0283C8.88678 8.09065 8.83981 8.14427 8.78227 8.18462V8.18298Z" fill="white"/>
</svg>
